<svg id="Layer_1" xmlns="http://www.w3.org/2000/svg" baseProfile="tiny" version="1.2" viewBox="0 0 295.4 295.4">
  <rect width="295.4" height="295.4" rx="50" ry="50" fill="#262626"/>
  <g>
    <path d="M35.9,198.1l-13.4-6.1,45.6-94.6,13.3,6.1-45.5,94.6ZM90.1,198.1l-13.4-6.1,45.6-94.6,13.3,6.1-45.5,94.6Z" fill="#ffc127"/>
    <path d="M205.6,164c0,4.7-1.2,8.8-3.7,12.4-2.4,3.6-5.9,6.4-10.5,8.4-4.6,2-10,3-16.4,3s-13-1-17.8-3.1c-4.8-2.1-8.8-4.7-11.9-7.7l9-10c2.8,2.4,5.9,4.3,9.2,5.6,3.4,1.3,7,2,11.1,2s6.7-.8,9.1-2.4c2.3-1.6,3.5-3.9,3.5-6.8s-1-4.9-2.9-6.4c-1.9-1.6-5.5-3.1-10.8-4.7-8.8-2.7-15-5.8-18.7-9.5-3.7-3.6-5.6-8.3-5.6-14s1.3-8.5,3.8-11.8c2.5-3.3,6-5.7,10.3-7.5,4.3-1.7,9-2.6,14.2-2.6s10.9.8,15.4,2.5c4.4,1.7,8.3,4.1,11.5,7.2l-8.4,9.6c-2.5-2.1-5.3-3.7-8.2-4.7-2.9-1-5.9-1.5-8.9-1.5s-6.1.6-8.2,1.9-3.1,3.1-3.1,5.5.5,2.9,1.4,4,2.5,2.1,4.7,3.1c2.2,1,5.3,2.1,9.3,3.3,4.7,1.4,8.8,3.2,12.2,5.2s6,4.5,7.7,7.6c1.8,3,2.7,6.9,2.7,11.5Z" fill="#ffc127"/>
    <path d="M247.9,108.9c5.4,0,10,.7,13.7,2.1,3.8,1.4,7.2,3.4,10.4,6l-8.7,10.5c-2.1-1.7-4.3-3-6.8-4-2.5-1-5.2-1.5-8.1-1.5s-6,.9-8.6,2.7c-2.6,1.8-4.7,4.6-6.2,8.5s-2.3,8.8-2.3,15c0,9,1.6,15.6,4.9,19.7,3.3,4.1,7.5,6.2,12.6,6.2s6.9-.7,9.4-2.1c2.5-1.4,4.8-2.9,6.9-4.6l8.1,10.3c-2.8,2.8-6.3,5.2-10.4,7.2-4.1,2-9.1,3-14.9,3s-12.8-1.5-18.1-4.5c-5.3-3-9.4-7.5-12.4-13.3-3-5.9-4.5-13.1-4.5-21.7s1.5-15.5,4.6-21.4,7.3-10.3,12.6-13.4c5.3-3.1,11.3-4.6,17.9-4.6Z" fill="#ffc127"/>
  </g>
</svg>