<svg xmlns="http://www.w3.org/2000/svg" width="70" height="70" viewBox="0 0 70 70">
    <linearGradient id="fill7" gradientUnits="userSpaceOnUse" x1="-70" y1="0" x2="280" y2="0">
        <stop offset="0.25" style="stop-color:#4069B2"/>
        <stop offset="0.75" style="stop-color:#73A7F4"/>
    </linearGradient>
    <path fill="url(#fill7)" d="M36.8,32.3c-2.5,1.1-5.4,2.3-9.1,2.3c-1.5,0-3.1-0.2-4.6-0.6l2.6,26.3c0.1,1.101,0.6,2.101,1.4,2.9
	c0.8,0.7,1.9,1.2,3,1.2c0,0,3.6,0.199,4.8,0.199c1.3,0,5.2-0.199,5.2-0.199c1.101,0,2.2-0.4,3-1.2c0.801-0.7,1.301-1.8,1.4-2.9
	l2.7-29c-1.2-0.4-2.5-0.7-3.9-0.7C41,30.6,39,31.4,36.8,32.3z M59.1,18.7L58.7,16.8c-0.3-1.7-1.101-3.4-2.9-4
	c-0.6-0.2-1.2-0.3-1.7-0.7C53.7,11.7,53.5,11,53.4,10.4C53.2,9.3,53,8.2,52.8,7.1c-0.2-0.9-0.3-2-0.7-2.9C51.5,3,50.4,2.4,49.2,1.9
	C48.6,1.7,48,1.5,47.4,1.3c-2.9-0.8-6-1.1-9-1.2C34.8-0.1,31.2,0,27.6,0.3c-2.7,0.2-5.5,0.5-8,1.5c-0.9,0.3-1.9,0.7-2.6,1.5
	c-0.9,0.9-1.1,2.2-0.5,3.3c0.4,0.8,1.2,1.3,2,1.7c1.1,0.5,2.2,0.8,3.3,1.1c3.1,0.7,6.4,1,9.6,1.1c3.6,0.1,7.1,0,10.6-0.3
	c0.9-0.1,1.7-0.2,2.6-0.3c1-0.2,1.7-1.5,1.4-2.4c-0.4-1.1-1.3-1.5-2.4-1.4c-0.199,0-0.3,0-0.5,0.1H43c-0.4,0-0.7,0.1-1.1,0.1
	C41.1,6.4,40.4,6.5,39.6,6.5c-1.699,0.1-3.5,0.2-5.2,0.2s-3.4,0-5.1-0.2c-0.8,0-1.5-0.1-2.3-0.2c-0.3,0-0.7-0.1-1.1-0.1h-0.3h-0.1
	h-0.3c-0.7-0.1-1.4-0.2-2.1-0.4c-0.1,0-0.1-0.1-0.2-0.1c0-0.1-0.1-0.1-0.1-0.2s0-0.1,0.1-0.2c0-0.1,0.1-0.1,0.2-0.1l0,0
	c0.6-0.1,1.2-0.2,1.8-0.3c0.2,0,0.4-0.1,0.6-0.1l0,0c0.4,0,0.8-0.1,1.1-0.1c3.3-0.3,6.7-0.5,10-0.4c1.601,0,3.2,0.1,4.9,0.3
	c0.3,0,0.7,0.1,1,0.1c0.1,0,0.3,0,0.4,0h0.3C44,4.8,44.8,5,45.5,5.1c1.1,0.2,2.6,0.3,3.1,1.6C48.8,7.1,48.8,7.5,48.9,8L49,8.5l0,0
	c0.3,1.3,0.5,2.5,0.8,3.8c0,0.1,0,0.2,0,0.3s-0.1,0.2-0.1,0.3C49.6,13,49.6,13,49.5,13.1c-0.1,0-0.2,0.1-0.3,0.1l0,0H49h-0.2
	c-0.5,0.1-1,0.1-1.5,0.2c-1,0.1-2,0.2-3.1,0.3C42.2,13.9,40.1,14,38.1,14c-1,0-2.1,0-3.1,0c-4.1,0-8.3-0.2-12.4-0.7
	c-0.4-0.1-0.9-0.1-1.3-0.2c0.3,0-0.3,0-0.4,0c-0.3,0-0.6-0.1-0.8-0.1c-0.9-0.1-1.9-0.3-2.8-0.5c-1.1-0.2-2.2-0.1-3.3,0.5
	c-0.8,0.5-1.5,1.2-2,2c-0.4,0.9-0.6,1.9-0.8,2.9c-0.2,1-0.5,2-0.4,3.1c0.3,2.2,1.8,4,4,4.4c2.1,0.4,4.2,0.7,6.3,0.9
	c8.2,1,16.5,1.1,24.8,0.4c0.699-0.1,1.3-0.1,2-0.2c0.199,0,0.399,0,0.6,0.1s0.4,0.2,0.5,0.3s0.3,0.3,0.3,0.5
	C49.4,27.6,49.4,27.8,49.4,28l-0.2,2c-0.4,4.1-0.8,8.2-1.3,12.3C47.5,46.6,47,50.9,46.6,55.2c-0.1,1.2-0.3,2.399-0.399,3.6
	C46.1,60,46.1,61.2,45.8,62.4C45.4,64.3,44.2,65.4,42.4,65.8C40.7,66.2,39,66.4,37.3,66.4c-1.9,0-3.8-0.101-5.7-0.101
	c-2,0-4.5-0.2-6.1-1.7c-1.4-1.3-1.6-3.399-1.8-5.199C23.4,57,23.2,54.6,23,52.2l-1.4-13.3L20.7,30.3c0-0.1,0-0.3,0-0.4
	c-0.1-1-0.8-2-2-2c-1,0-2.1,0.9-2,2l0.7,6.4l1.4,13.2c0.4,3.7,0.8,7.5,1.2,11.2c0.1,0.7,0.1,1.399,0.2,2.2c0.4,3.899,3.4,6,7.1,6.6
	c2.2,0.4,4.4,0.4,6.6,0.5c2.8,0,5.7,0.2,8.4-0.4c4.101-0.8,7.2-3.5,7.601-7.8c0.1-1.2,0.3-2.5,0.399-3.7C50.7,54,51.1,50,51.6,45.9
	L53,32.6l0.6-6.1c0-0.3,0.2-0.6,0.4-0.8c0.2-0.2,0.5-0.4,0.8-0.4c1.2-0.2,2.3-0.6,3.101-1.5C59.3,22.4,59.5,20.6,59.1,18.7z
	 M54.8,21c-0.399,0.4-1.1,0.6-1.7,0.7c-7,1-14.199,1.6-21.3,1.3c-5.1-0.2-10.1-0.7-15.2-1.5c-0.5-0.1-1-0.2-1.4-0.5
	c-0.6-0.7-0.3-2.1-0.2-2.9c0.2-0.8,0.4-1.8,1.4-1.9c1.4-0.2,3.1,0.4,4.5,0.6c1.7,0.3,3.4,0.5,5.1,0.6c7.2,0.7,14.6,0.6,21.8-0.4
	c1.3-0.2,2.601-0.4,3.9-0.6c1.2-0.2,2.399-0.6,3.2,0.6c0.5,0.8,0.5,1.9,0.5,2.8c0,0.4-0.2,0.8-0.5,1.1l0,0V21H54.8z"/>
</svg>