<svg version="1.1" id="Layer_1" xmlns="http://www.w3.org/2000/svg" xmlns:xlink="http://www.w3.org/1999/xlink" x="0px"
     y="0px"
     width="70px" height="70px" viewBox="0 0 70 70" enable-background="new 0 0 70 70" xml:space="preserve">
<linearGradient id="fill2" gradientUnits="userSpaceOnUse" x1="-70" y1="0" x2="280" y2="0">
	<stop offset="0.25" style="stop-color:#4069B2"/>
    <stop offset="0.75" style="stop-color:#73A7F4"/>
</linearGradient>
    <path d="M35,0.867c-19.327,0-35,15.673-35,35.001c0,15.463,10.031,28.58,23.933,33.207
	c1.75,0.321,2.394-0.763,2.394-1.687c0-0.834-0.035-3.592-0.049-6.518c-9.737,2.113-11.795-4.131-11.795-4.131
	c-1.589-4.045-3.885-5.123-3.885-5.123c-3.178-2.17,0.238-2.129,0.238-2.129c3.514,0.246,5.362,3.604,5.362,3.604
	c3.122,5.349,8.19,3.802,10.185,2.912c0.315-2.261,1.218-3.81,2.219-4.685c-7.777-0.881-15.946-3.885-15.946-17.296
	c0-3.822,1.365-6.944,3.605-9.394c-0.364-0.882-1.561-4.438,0.336-9.261c0,0,2.94-0.938,9.625,3.591
	c2.793-0.777,5.789-1.162,8.764-1.176c2.975,0.014,5.971,0.399,8.771,1.176c6.679-4.529,9.618-3.591,9.618-3.591
	c1.904,4.823,0.707,8.379,0.343,9.261c2.247,2.45,3.605,5.572,3.605,9.394c0,13.44-8.19,16.401-15.981,17.27
	c1.254,1.085,2.373,3.213,2.373,6.481c0,4.684-0.042,8.449-0.042,9.604c0,0.933,0.63,2.022,2.401,1.681
	C59.982,64.441,70,51.331,70,35.868C70,16.541,54.327,0.867,35,0.867z M13.258,51.121c-0.077,0.175-0.35,0.224-0.602,0.104
	c-0.252-0.11-0.399-0.35-0.315-0.524c0.077-0.183,0.35-0.23,0.602-0.111C13.202,50.708,13.342,50.945,13.258,51.121L13.258,51.121z
	 M14.672,52.702c-0.168,0.153-0.497,0.085-0.714-0.16c-0.231-0.245-0.273-0.567-0.105-0.729c0.175-0.153,0.49-0.084,0.721,0.162
	C14.805,52.227,14.847,52.549,14.672,52.702L14.672,52.702z M16.051,54.719c-0.217,0.147-0.567,0.008-0.784-0.301
	c-0.217-0.309-0.217-0.688,0.007-0.833c0.217-0.146,0.56-0.015,0.784,0.294C16.275,54.193,16.275,54.564,16.051,54.719
	L16.051,54.719z M17.948,56.665c-0.189,0.21-0.602,0.153-0.896-0.133c-0.308-0.28-0.392-0.688-0.196-0.896s0.609-0.153,0.91,0.134
	C18.06,56.057,18.151,56.455,17.948,56.665L17.948,56.665z M20.552,57.799c-0.084,0.271-0.476,0.399-0.875,0.28
	c-0.399-0.119-0.658-0.44-0.574-0.722c0.084-0.272,0.476-0.405,0.875-0.28C20.377,57.204,20.636,57.52,20.552,57.799L20.552,57.799z
	 M23.415,58.009c0.007,0.287-0.329,0.525-0.742,0.532c-0.42,0.007-0.756-0.225-0.763-0.511c0-0.296,0.329-0.525,0.749-0.532
	C23.079,57.491,23.415,57.723,23.415,58.009L23.415,58.009z M26.082,57.555c0.049,0.279-0.238,0.573-0.651,0.65
	c-0.406,0.077-0.784-0.1-0.833-0.378c-0.049-0.287,0.245-0.581,0.651-0.651C25.662,57.1,26.033,57.268,26.082,57.555L26.082,57.555z
	"/>
</svg>
