<svg xmlns="http://www.w3.org/2000/svg" width="70" height="70" viewBox="-488 -488 1000 1000">
    <path d="M419.3 342.6c30.8 0 61.4 0 92.7 0 0 56.8 0 112.9 0 169.4 -146.1 0-291.8 0-437.5 0 -2-6.5-2.8-153.7-0.7-169.3 30.4-0.3 61 0 91.4-0.2 2.2-7.2 2.6-348.6 0.7-359.5 -99.9 0-199.9 0-299.9 0 -2.1 7-2.4 349.7-0.2 359.4 35.6 0 71.5 0 108 0 0 56.9 0 112.9 0 169.4 -151.3 0-302.5 0-454.2 0 0-56.3 0-112.3 0-169.3 31 0 61.6 0 92.8 0 0-120.3 0-239.5 0-360 -33.4 0-66.6 0-100.3 0 0-57 0-112.7 0-169.8 33.1-0.6 66.3 0.1 100.9-0.3 0-4.4 0-8.2 0-12 -0.2-27.3 1-54.6 6.8-81.5 17.1-78.8 66.2-132.7 144.4-164.2 35.4-14.2 72.6-22.1 110.7-26.4 43.4-4.9 86.7-4.5 130-1.4 9 0.7 18 2 27.3 3 0 61.6 0 122.6 0 184.4 -11.9-0.9-23.4-1.8-34.8-2.6 -24-1.5-48-1.6-71.7 2.7 -10 1.8-20.1 5.1-29.2 9.4 -19 9.1-29.5 24.6-31 44.4 -1.1 14.4-0.2 28.9-0.2 44.2 184 0 367.6 0 550.4 0 1.1 1 1.4 1.2 1.6 1.4 0.2 0.2 0.3 0.4 0.4 0.8 0.1 0.3 0.2 0.6 0.2 0.9 0.1 0.6 0.2 1.2 0.2 1.8 0.1 0.6 0.1 1.2 0.1 1.8 0 0.7 0 1.2 0 1.8 0 171.9 0 343.8 0 515.7 0 0.6 0 1.2 0 1.8 0 0.3 0 0.7 0.1 0.9 0 0.3 0.1 0.6 0.2 0.9C418.5 340.4 418.7 340.7 419.3 342.6z"/>
    <path d="M172.1-375.2c0.3-62.5 54.2-112.9 120.7-112.7 66.8 0.1 121.1 51.4 120.7 114 -0.4 62.1-55.1 112.5-121.5 112.2C225.2-262.1 171.8-312.7 172.1-375.2z"/>
</svg>