<svg xmlns="http://www.w3.org/2000/svg" width="70" height="70" viewBox="0 0 512 512" class="undefined">
    <path d="M99.6 8.1C88 0.5 73.9-1.8 60.8 1.3l230.9 230.9 74.8-74.8L99.6 8.1z" class="undefined"/>
    <path d="M32.1 20.1c-6.4 8.6-10.1 19.1-10.1 30.2v411.4c0 11.1 3.7 21.6 10.1 30.2l235.9-235.9L32.1 20.1z"
          class="undefined"/>
    <path d="M464.3 212.1l-67.3-37.6 -81.5 81.5 81.5 81.5 67.3-37.6c16.1-9 25.7-25.4 25.7-43.9S480.4 221.1 464.3 212.1z"
          class="undefined"/>
    <path d="M291.7 279.7L60.8 510.6c3.8 0.9 7.6 1.4 11.5 1.4 9.5 0 19-2.7 27.3-8.1l267-149.4L291.7 279.7z"
          class="undefined"/>
</svg>