<svg xmlns="http://www.w3.org/2000/svg" width="70" height="70" viewBox="0 0 1000 1000">
    <path d="M500 12.3C223.9 12.3 0 236.2 0 512.3c0 220.9 143.3 408.3 341.9 474.4 25 4.6 34.2-10.9 34.2-24.1 0-11.9-0.5-51.3-0.7-93.1 -139.1 30.2-168.5-59-168.5-59 -22.7-57.8-55.5-73.2-55.5-73.2 -45.4-31 3.4-30.4 3.4-30.4 50.2 3.5 76.6 51.5 76.6 51.5 44.6 76.4 117 54.3 145.5 41.6 4.5-32.3 17.4-54.4 31.7-66.9 -111.1-12.6-227.8-55.5-227.8-247.1 0-54.6 19.5-99.2 51.5-134.2 -5.2-12.6-22.3-63.4 4.8-132.3 0 0 42-13.4 137.5 51.3 39.9-11.1 82.7-16.6 125.2-16.8 42.5 0.2 85.3 5.7 125.3 16.8 95.4-64.7 137.4-51.3 137.4-51.3 27.2 68.9 10.1 119.7 4.9 132.3 32.1 35 51.5 79.6 51.5 134.2 0 192-117 234.3-228.3 246.7 17.9 15.5 33.9 45.9 33.9 92.6 0 66.9-0.6 120.7-0.6 137.2 0 13.3 9 28.9 34.3 24C856.9 920.5 1000 733.2 1000 512.3 1000 236.2 776.1 12.3 500 12.3z"/>
    <path d="M189.4 730.2c-1.1 2.5-5 3.2-8.6 1.5 -3.6-1.6-5.7-5-4.5-7.5 1.1-2.6 5-3.3 8.6-1.6C188.6 724.3 190.6 727.7 189.4 730.2L189.4 730.2zM183.2 725.7"/>
    <path d="M209.6 752.8c-2.4 2.2-7.1 1.2-10.2-2.3 -3.3-3.5-3.9-8.1-1.5-10.4 2.5-2.2 7-1.2 10.3 2.3C211.5 746 212.1 750.6 209.6 752.8L209.6 752.8zM204.9 747.7"/>
    <path d="M229.3 781.6c-3.1 2.1-8.1 0.1-11.2-4.3 -3.1-4.4-3.1-9.8 0.1-11.9 3.1-2.1 8-0.2 11.2 4.2C232.5 774.1 232.5 779.4 229.3 781.6L229.3 781.6zM229.3 781.6"/>
    <path d="M256.4 809.4c-2.7 3-8.6 2.2-12.8-1.9 -4.4-4-5.6-9.8-2.8-12.8 2.8-3 8.7-2.2 13 1.9C258 800.7 259.3 806.4 256.4 809.4L256.4 809.4zM256.4 809.4"/>
    <path d="M293.6 825.6c-1.2 3.9-6.8 5.7-12.5 4 -5.7-1.7-9.4-6.3-8.2-10.3 1.2-3.9 6.8-5.8 12.5-4C291.1 817.1 294.8 821.6 293.6 825.6L293.6 825.6zM293.6 825.6"/>
    <path d="M334.5 828.6c0.1 4.1-4.7 7.5-10.6 7.6 -6 0.1-10.8-3.2-10.9-7.3 0-4.2 4.7-7.5 10.7-7.6C329.7 821.2 334.5 824.5 334.5 828.6L334.5 828.6zM334.5 828.6"/>
    <path d="M372.6 822.1c0.7 4-3.4 8.2-9.3 9.3 -5.8 1.1-11.2-1.4-11.9-5.4 -0.7-4.1 3.5-8.3 9.3-9.3C366.6 815.6 371.9 818 372.6 822.1L372.6 822.1zM372.6 822.1"/>
</svg>