<svg xmlns="http://www.w3.org/2000/svg" width="48" height="48" viewBox="0 0 48 48">
    <path fill="#03A9F4" d="M6 10a4 4 0 0 1 4-4h28a4 4 0 0 1 4 4v28a4 4 0 0 1-4 4H10a4 4 0 0 1-4-4z" />
    <path fill="#020F16"
        d="M20.016 19.174h-2.002v4.434h1.973q.82 0 1.27-.537c.45-.537.449-.879.449-1.563q0-1.065-.459-1.694c-.459-.629-.717-.633-1.231-.64" />
    <path fill="#020F16"
        d="M9 9v30h30V9zm14.365 15.789Q22.125 26 19.928 26h-1.914v5h-2.871V16.781h4.844q2.11 0 3.364 1.309c1.254 1.309 1.255 2.005 1.255 3.398s-.414 2.493-1.241 3.301m9.317 5.547q-1.064.86-2.793.859-1.163 0-2.051-.454c-.888-.454-1.057-.725-1.392-1.265s-.503-1.123-.503-1.748h2.627q.02.722.337 1.084c.317.362.558.361 1.04.361q1.113 0 1.113-1.006 0-.352-.337-.649c-.337-.297-.723-.466-1.498-.805q-1.709-.693-2.349-1.436c-.64-.743-.64-1.11-.64-1.846q0-1.387 1.001-2.29c1.001-.903 1.552-.903 2.651-.903q1.737 0 2.783.898c1.046.898 1.045 1.403 1.045 2.412h-2.764q0-1.289-1.074-1.289-.439 0-.723.273c-.284.273-.283.437-.283.762q0 .351.313.62c.313.269.699.435 1.475.767q1.69.626 2.388 1.392c.698.766.698 1.174.698 1.987q0 1.417-1.064 2.276" />
</svg>