<svg xmlns="http://www.w3.org/2000/svg" width="48" height="48" viewBox="0 0 48 48">
    <path fill="#FF5722" d="M6 10a4 4 0 0 1 4-4h28a4 4 0 0 1 4 4v28a4 4 0 0 1-4 4H10a4 4 0 0 1-4-4z" />
    <path fill="#1C0802"
        d="M9 9v30h30V9zm14.691 22-.762-2.91h-3.916L18.252 31h-3.037l4.443-14.219h2.627L26.758 31zm7.159 0h-2.773V20.434h2.773zm-.298-12.246q-.406.42-1.099.42c-.693 0-.828-.14-1.099-.42s-.405-.632-.405-1.055q0-.645.41-1.055c.41-.41.639-.41 1.094-.41s.82.137 1.094.41.41.625.41 1.055q0 .635-.405 1.055" />
    <path fill="#1C0802" d="M19.639 25.697h2.656l-1.328-5.068z" />
</svg>