<svg xmlns="http://www.w3.org/2000/svg" width="48" height="48">
    <path fill="#b388ff" d="M6 10a4 4 0 0 1 4-4h28a4 4 0 0 1 4 4v28a4 4 0 0 1-4 4H10a4 4 0 0 1-4-4z" />
    <path fill="#170b40" d="M9 9v30h30V9z" />
    <path fill="#b388ff"
        d="M21.183 27.965h-4.555l-.866 2.846H13L17.694 17h2.407l4.719 13.81h-2.762zM17.33 25.66h3.152l-1.584-5.17zM30.146 31q-1.092 0-1.953-.389a4.3 4.3 0 0 1-1.464-1.063 4.6 4.6 0 0 1-.918-1.579 5.9 5.9 0 0 1-.316-1.94v-.37q0-1.167.308-2.139a5 5 0 0 1 .875-1.674 4 4 0 0 1 1.376-1.096 4.1 4.1 0 0 1 1.814-.394q1.013 0 1.784.365.77.365 1.295 1.025t.788 1.589c.264.93.265 1.31.265 2.069v1.167h-5.966q.06.503.247.91.186.408.476.697c.29.289.42.343.679.451q.39.162.875.161.685 0 1.264-.28.58-.28.996-.868l1.23 1.508q-.225.351-.563.683a3.8 3.8 0 0 1-.797.593q-.458.261-1.035.417a4.8 4.8 0 0 1-1.26.157m-.285-8.423a1.55 1.55 0 0 0-.715.157 1.6 1.6 0 0 0-.528.436 2.3 2.3 0 0 0-.359.669 4 4 0 0 0-.198.863h3.481v-.218a3 3 0 0 0-.109-.759 1.7 1.7 0 0 0-.303-.607 1.4 1.4 0 0 0-.519-.398 1.8 1.8 0 0 0-.75-.143" />
</svg>