<svg xmlns="http://www.w3.org/2000/svg" width="70" height="70" viewBox="0 0 70 70">
    <linearGradient id="SVGID_19_" gradientUnits="userSpaceOnUse" x1="-70" y1="0" x2="280" y2="0">
        <stop offset="0.25" style="stop-color:#4069B2"/>
        <stop offset="0.75" style="stop-color:#73A7F4"/>
    </linearGradient>
    <path fill="url(#SVGID_19_)"
          d="M36.8 32.3c-2.5 1.1-5.4 2.3-9.1 2.3 -1.5 0-3.1-0.2-4.6-0.6l2.6 26.3c0.1 1.1 0.6 2.1 1.4 2.9 0.8 0.7 1.9 1.2 3 1.2 0 0 3.6 0.2 4.8 0.2 1.3 0 5.2-0.2 5.2-0.2 1.1 0 2.2-0.4 3-1.2 0.8-0.7 1.3-1.8 1.4-2.9l2.7-29c-1.2-0.4-2.5-0.7-3.9-0.7C41 30.6 39 31.4 36.8 32.3z"/>
    <linearGradient id="SVGID_20_" gradientUnits="userSpaceOnUse" x1="-70" y1="0" x2="280" y2="0">
        <stop offset="0.25" style="stop-color:#4069B2"/>
        <stop offset="0.75" style="stop-color:#73A7F4"/>
    </linearGradient>
    <path fill="url(#SVGID_20_)"
          d="M59.1 18.7l-0.4-1.9c-0.3-1.7-1.1-3.4-2.9-4 -0.6-0.2-1.2-0.3-1.7-0.7 -0.4-0.4-0.6-1.1-0.7-1.7 -0.2-1.1-0.4-2.2-0.6-3.3 -0.2-0.9-0.3-2-0.7-2.9 -0.6-1.2-1.7-1.8-2.9-2.3 -0.6-0.2-1.2-0.4-1.8-0.6 -2.9-0.8-6-1.1-9-1.2 -3.6-0.2-7.2-0.1-10.8 0.2 -2.7 0.2-5.5 0.5-8 1.5 -0.9 0.3-1.9 0.7-2.6 1.5 -0.9 0.9-1.1 2.2-0.5 3.3 0.4 0.8 1.2 1.3 2 1.7 1.1 0.5 2.2 0.8 3.3 1.1 3.1 0.7 6.4 1 9.6 1.1 3.6 0.1 7.1 0 10.6-0.3 0.9-0.1 1.7-0.2 2.6-0.3 1-0.2 1.7-1.5 1.4-2.4 -0.4-1.1-1.3-1.5-2.4-1.4 -0.2 0-0.3 0-0.5 0.1h-0.1c-0.4 0-0.7 0.1-1.1 0.1 -0.8 0.1-1.5 0.2-2.3 0.2 -1.7 0.1-3.5 0.2-5.2 0.2 -1.7 0-3.4 0-5.1-0.2 -0.8 0-1.5-0.1-2.3-0.2 -0.3 0-0.7-0.1-1.1-0.1h-0.3 -0.1 -0.3c-0.7-0.1-1.4-0.2-2.1-0.4 -0.1 0-0.1-0.1-0.2-0.1 0-0.1-0.1-0.1-0.1-0.2s0-0.1 0.1-0.2c0-0.1 0.1-0.1 0.2-0.1l0 0c0.6-0.1 1.2-0.2 1.8-0.3 0.2 0 0.4-0.1 0.6-0.1l0 0c0.4 0 0.8-0.1 1.1-0.1 3.3-0.3 6.7-0.5 10-0.4 1.6 0 3.2 0.1 4.9 0.3 0.3 0 0.7 0.1 1 0.1 0.1 0 0.3 0 0.4 0h0.3c0.8 0.1 1.6 0.3 2.3 0.4 1.1 0.2 2.6 0.3 3.1 1.6C48.8 7.1 48.8 7.5 48.9 8l0.1 0.5 0 0c0.3 1.3 0.5 2.5 0.8 3.8 0 0.1 0 0.2 0 0.3 0 0.1-0.1 0.2-0.1 0.3 -0.1 0.1-0.1 0.1-0.2 0.2 -0.1 0-0.2 0.1-0.3 0.1l0 0h-0.2 -0.2c-0.5 0.1-1 0.1-1.5 0.2 -1 0.1-2 0.2-3.1 0.3 -2 0.2-4.1 0.3-6.1 0.3 -1 0-2.1 0-3.1 0 -4.1 0-8.3-0.2-12.4-0.7 -0.4-0.1-0.9-0.1-1.3-0.2 0.3 0-0.3 0-0.4 0 -0.3 0-0.6-0.1-0.8-0.1 -0.9-0.1-1.9-0.3-2.8-0.5 -1.1-0.2-2.2-0.1-3.3 0.5 -0.8 0.5-1.5 1.2-2 2 -0.4 0.9-0.6 1.9-0.8 2.9 -0.2 1-0.5 2-0.4 3.1 0.3 2.2 1.8 4 4 4.4 2.1 0.4 4.2 0.7 6.3 0.9 8.2 1 16.5 1.1 24.8 0.4 0.7-0.1 1.3-0.1 2-0.2 0.2 0 0.4 0 0.6 0.1 0.2 0.1 0.4 0.2 0.5 0.3 0.1 0.1 0.3 0.3 0.3 0.5 0.1 0.2 0.1 0.4 0.1 0.6l-0.2 2c-0.4 4.1-0.8 8.2-1.3 12.3 -0.4 4.3-0.9 8.6-1.3 12.9 -0.1 1.2-0.3 2.4-0.4 3.6 -0.1 1.2-0.1 2.4-0.4 3.6 -0.4 1.9-1.6 3-3.4 3.4 -1.7 0.4-3.4 0.6-5.1 0.6 -1.9 0-3.8-0.1-5.7-0.1 -2 0-4.5-0.2-6.1-1.7 -1.4-1.3-1.6-3.4-1.8-5.2 -0.3-2.4-0.5-4.8-0.7-7.2l-1.4-13.3 -0.9-8.6c0-0.1 0-0.3 0-0.4 -0.1-1-0.8-2-2-2 -1 0-2.1 0.9-2 2l0.7 6.4 1.4 13.2c0.4 3.7 0.8 7.5 1.2 11.2 0.1 0.7 0.1 1.4 0.2 2.2 0.4 3.9 3.4 6 7.1 6.6 2.2 0.4 4.4 0.4 6.6 0.5 2.8 0 5.7 0.2 8.4-0.4 4.1-0.8 7.2-3.5 7.6-7.8 0.1-1.2 0.3-2.5 0.4-3.7 0.4-4.1 0.8-8.1 1.3-12.2l1.4-13.3 0.6-6.1c0-0.3 0.2-0.6 0.4-0.8 0.2-0.2 0.5-0.4 0.8-0.4 1.2-0.2 2.3-0.6 3.1-1.5C59.3 22.4 59.5 20.6 59.1 18.7zM54.8 21c-0.4 0.4-1.1 0.6-1.7 0.7 -7 1-14.2 1.6-21.3 1.3 -5.1-0.2-10.1-0.7-15.2-1.5 -0.5-0.1-1-0.2-1.4-0.5 -0.6-0.7-0.3-2.1-0.2-2.9 0.2-0.8 0.4-1.8 1.4-1.9 1.4-0.2 3.1 0.4 4.5 0.6 1.7 0.3 3.4 0.5 5.1 0.6 7.2 0.7 14.6 0.6 21.8-0.4 1.3-0.2 2.6-0.4 3.9-0.6 1.2-0.2 2.4-0.6 3.2 0.6 0.5 0.8 0.5 1.9 0.5 2.8 0 0.4-0.2 0.8-0.5 1.1l0 0v0.1H54.8z"/>
</svg>