<svg version="1.1" id="Layer_1" xmlns="http://www.w3.org/2000/svg" xmlns:xlink="http://www.w3.org/1999/xlink" x="0px" y="0px"
	 width="70px" height="70px" viewBox="0 0 70 70" enable-background="new 0 0 70 70" xml:space="preserve">
<linearGradient id="SVGID_16_" gradientUnits="userSpaceOnUse" x1="-280" y1="0" x2="70" y2="0">
	<stop  offset="0.25" style="stop-color:#4069B2"/>
	<stop  offset="0.75" style="stop-color:#73A7F4"/>
</linearGradient>
<path fill="url(#SVGID_16_)" d="M63.508,58.14c2.156,0,4.297,0,6.488,0c0,3.975,0,7.902,0,11.857c-10.227,0-20.426,0-30.625,0
	c-0.141-0.455-0.195-10.76-0.049-11.852c2.129-0.021,4.27,0,6.398-0.014c0.154-0.504,0.182-24.402,0.049-25.165
	c-6.994,0-13.993,0-20.993,0c-0.147,0.489-0.168,24.479-0.014,25.157c2.491,0,5.005,0,7.56,0c0,3.984,0,7.904,0,11.859
	c-10.591,0-21.175,0-31.793,0c0-3.941,0-7.861,0-11.852c2.17,0,4.311,0,6.495,0c0-8.422,0-16.766,0-25.2c-2.338,0-4.661,0-7.021,0
	c0-3.989,0-7.89,0-11.886c2.316-0.043,4.641,0.007,7.063-0.021c0-0.308,0-0.574,0-0.84c-0.014-1.911,0.07-3.822,0.477-5.705
	C8.74,8.964,12.177,5.19,17.65,2.985c2.479-0.994,5.082-1.547,7.749-1.848c3.038-0.344,6.069-0.314,9.101-0.098
	c0.629,0.049,1.26,0.14,1.91,0.209c0,4.313,0,8.582,0,12.908c-0.832-0.063-1.638-0.125-2.436-0.182
	c-1.68-0.105-3.359-0.111-5.02,0.189c-0.699,0.125-1.406,0.356-2.043,0.658c-1.33,0.637-2.065,1.721-2.17,3.107
	c-0.078,1.008-0.015,2.023-0.015,3.094c12.88,0,25.731,0,38.528,0c0.076,0.07,0.098,0.084,0.111,0.098
	c0.014,0.015,0.021,0.029,0.027,0.057c0.008,0.021,0.016,0.042,0.016,0.063c0.006,0.043,0.014,0.084,0.014,0.127
	c0.006,0.041,0.006,0.084,0.006,0.125c0,0.049,0,0.084,0,0.127c0,12.033,0,24.066,0,36.1c0,0.041,0,0.084,0,0.125
	c0,0.021,0,0.049,0.008,0.063c0,0.021,0.008,0.043,0.014,0.064C63.451,57.985,63.465,58.005,63.508,58.14z"/>
<linearGradient id="SVGID_17_" gradientUnits="userSpaceOnUse" x1="-280" y1="0" x2="70" y2="0">
	<stop  offset="0.25" style="stop-color:#4069B2"/>
	<stop  offset="0.75" style="stop-color:#73A7F4"/>
</linearGradient>
<path fill="url(#SVGID_17_)" d="M46.203,7.893c0.021-4.375,3.795-7.903,8.449-7.89c4.676,0.008,8.477,3.599,8.449,7.98
	c-0.027,4.348-3.857,7.875-8.506,7.854C49.92,15.81,46.182,12.268,46.203,7.893z"/>
</svg>
