<svg version="1.1" id="Layer_1" xmlns="http://www.w3.org/2000/svg" xmlns:xlink="http://www.w3.org/1999/xlink" x="0px" y="0px"
	 width="70px" height="70px" viewBox="0 0 70 70" enable-background="new 0 0 70 70" xml:space="preserve">
<linearGradient id="SVGID_3_" gradientUnits="userSpaceOnUse" x1="-70" y1="0" x2="280" y2="0">
	<stop  offset="0.25" style="stop-color:#4069B2"/>
	<stop  offset="0.75" style="stop-color:#73A7F4"/>
</linearGradient>
<path fill="url(#SVGID_3_)" d="M35,0.867c-19.327,0-35,15.673-35,35.001c0,15.463,10.031,28.58,23.933,33.207
	c1.75,0.322,2.394-0.762,2.394-1.687c0-0.833-0.035-3.591-0.049-6.517c-9.737,2.113-11.795-4.131-11.795-4.131
	c-1.589-4.045-3.885-5.123-3.885-5.123c-3.178-2.17,0.238-2.129,0.238-2.129c3.514,0.246,5.362,3.605,5.362,3.605
	c3.122,5.348,8.19,3.801,10.185,2.912c0.315-2.261,1.218-3.809,2.219-4.684c-7.777-0.881-15.946-3.885-15.946-17.297
	c0-3.822,1.365-6.944,3.605-9.394c-0.364-0.882-1.561-4.438,0.336-9.261c0,0,2.94-0.938,9.625,3.591
	c2.793-0.777,5.789-1.162,8.764-1.176c2.975,0.014,5.971,0.399,8.771,1.176c6.679-4.529,9.618-3.591,9.618-3.591
	c1.904,4.823,0.707,8.379,0.343,9.261c2.247,2.45,3.605,5.572,3.605,9.394c0,13.44-8.19,16.401-15.981,17.27
	c1.254,1.085,2.373,3.213,2.373,6.482c0,4.683-0.042,8.448-0.042,9.604c0,0.932,0.63,2.023,2.401,1.68
	C59.982,64.442,70,51.331,70,35.868C70,16.541,54.327,0.867,35,0.867z"/>
<linearGradient id="SVGID_4_" gradientUnits="userSpaceOnUse" x1="-70" y1="0" x2="280" y2="0">
	<stop  offset="0.25" style="stop-color:#4069B2"/>
	<stop  offset="0.75" style="stop-color:#73A7F4"/>
</linearGradient>
<path fill="url(#SVGID_4_)" d="M13.258,51.121c-0.077,0.175-0.35,0.224-0.602,0.104c-0.252-0.111-0.399-0.35-0.315-0.525
	c0.077-0.182,0.35-0.23,0.602-0.111C13.202,50.708,13.342,50.946,13.258,51.121L13.258,51.121z"/>
<linearGradient id="SVGID_5_" gradientUnits="userSpaceOnUse" x1="-70" y1="0" x2="280" y2="0">
	<stop  offset="0.25" style="stop-color:#4069B2"/>
	<stop  offset="0.75" style="stop-color:#73A7F4"/>
</linearGradient>
<path fill="url(#SVGID_5_)" d="M14.672,52.702c-0.168,0.154-0.497,0.085-0.714-0.16c-0.231-0.245-0.273-0.567-0.105-0.729
	c0.175-0.154,0.49-0.084,0.721,0.161C14.805,52.227,14.847,52.549,14.672,52.702L14.672,52.702z"/>
<linearGradient id="SVGID_6_" gradientUnits="userSpaceOnUse" x1="-70" y1="0" x2="280" y2="0">
	<stop  offset="0.25" style="stop-color:#4069B2"/>
	<stop  offset="0.75" style="stop-color:#73A7F4"/>
</linearGradient>
<path fill="url(#SVGID_6_)" d="M16.051,54.719c-0.217,0.147-0.567,0.007-0.784-0.301c-0.217-0.308-0.217-0.687,0.007-0.833
	c0.217-0.146,0.56-0.014,0.784,0.294C16.275,54.194,16.275,54.565,16.051,54.719L16.051,54.719z"/>
<linearGradient id="SVGID_7_" gradientUnits="userSpaceOnUse" x1="0" y1="0" x2="280" y2="0">
	<stop  offset="0.25" style="stop-color:#4069B2"/>
	<stop  offset="0.75" style="stop-color:#73A7F4"/>
</linearGradient>
<path fill="url(#SVGID_7_)" d="M17.948,56.665c-0.189,0.21-0.602,0.154-0.896-0.133c-0.308-0.28-0.392-0.687-0.196-0.896
	s0.609-0.154,0.91,0.133C18.06,56.056,18.151,56.455,17.948,56.665L17.948,56.665z"/>
<linearGradient id="SVGID_8_" gradientUnits="userSpaceOnUse" x1="0" y1="0" x2="280" y2="0">
	<stop  offset="0.25" style="stop-color:#4069B2"/>
	<stop  offset="0.75" style="stop-color:#73A7F4"/>
</linearGradient>
<path fill="url(#SVGID_8_)" d="M20.552,57.799c-0.084,0.272-0.476,0.399-0.875,0.28c-0.399-0.119-0.658-0.441-0.574-0.721
	c0.084-0.273,0.476-0.406,0.875-0.281C20.377,57.204,20.636,57.519,20.552,57.799L20.552,57.799z"/>
<linearGradient id="SVGID_9_" gradientUnits="userSpaceOnUse" x1="0" y1="0" x2="280" y2="0">
	<stop  offset="0.25" style="stop-color:#4069B2"/>
	<stop  offset="0.75" style="stop-color:#73A7F4"/>
</linearGradient>
<path fill="url(#SVGID_9_)" d="M23.415,58.009c0.007,0.287-0.329,0.525-0.742,0.532c-0.42,0.007-0.756-0.224-0.763-0.511
	c0-0.295,0.329-0.525,0.749-0.532C23.079,57.491,23.415,57.722,23.415,58.009L23.415,58.009z"/>
<linearGradient id="SVGID_10_" gradientUnits="userSpaceOnUse" x1="0" y1="0" x2="280" y2="0">
	<stop  offset="0.25" style="stop-color:#4069B2"/>
	<stop  offset="0.75" style="stop-color:#73A7F4"/>
</linearGradient>
<path fill="url(#SVGID_10_)" d="M26.082,57.554c0.049,0.28-0.238,0.574-0.651,0.651c-0.406,0.077-0.784-0.099-0.833-0.378
	c-0.049-0.287,0.245-0.581,0.651-0.651C25.662,57.099,26.033,57.267,26.082,57.554L26.082,57.554z"/>
</svg>
