<svg xmlns="http://www.w3.org/2000/svg" width="70" height="70" viewBox="0 0 70 70">
    <linearGradient id="SVGID_22_" gradientUnits="userSpaceOnUse" x1="-210" y1="0" x2="140" y2="0">
        <stop offset="0.25" style="stop-color:#4069B2"/>
        <stop offset="0.75" style="stop-color:#73A7F4"/>
    </linearGradient>
    <path fill="url(#SVGID_22_)" d="M69.7 26.1C67.4 14.2 55.5 12.7 55.5 12.7H2.1c-1.8 0-2 2.3-2 2.3s-0.2 21.4-0.1 34.5c0.5 7.1 7.5 7.8 7.5 7.8s24.1-0.1 34.9-0.1c7.1-1.2 7.8-7.5 7.8-10.9C63 47 71.9 38 69.7 26.1L69.7 26.1zM37.4 36.3C33.8 40.6 25.7 47.9 25.7 47.9S25.3 48.3 24.8 48c-0.2-0.2-0.3-0.3-0.3-0.3 -1.3-1.3-9.8-8.9-11.8-11.5 -2.1-2.8-3-7.9-0.3-10.8 2.8-2.9 8.8-3.2 12.7 1.2 0 0 4.6-5.2 10.1-2.8C40.8 26.2 40.6 32.5 37.4 36.3L37.4 36.3zM55.4 37.7c-2.7 0.3-4.9 0.1-4.9 0.1V21.2h5.2c0 0 5.7 1.6 5.7 7.7C61.4 34.5 58.5 36.7 55.4 37.7L55.4 37.7z"/>
</svg>