<svg xmlns="http://www.w3.org/2000/svg" width="70" height="70" viewBox="0 0 70 70">
    <linearGradient id="SVGID_21_" gradientUnits="userSpaceOnUse" x1="-140" y1="0" x2="210" y2="0">
        <stop offset="0.25" style="stop-color:#4069B2"/>
        <stop offset="0.75" style="stop-color:#73A7F4"/>
    </linearGradient>
    <path fill="url(#SVGID_21_)" d="M20.6 62.2H7.2c-1 0-1.9-0.8-1.9-1.9 0-0.1 0-0.2 0-0.3L14.4 2.6C14.7 1.1 16 0 17.5 0h21.8c7.5 0 13.4 1.6 16.6 5.3 2.9 3.4 3.8 7.1 3 12.5 -0.1 0.4-0.1 0.8-0.2 1.3 -2.9 14.7-12.7 19.8-25.2 19.8h-6.4c-1.5 0-2.8 1.1-3.1 2.6L20.6 62.2 20.6 62.2zM61.9 20.2c-0.5-0.6-1.1-1.1-1.8-1.6 0 0.2-0.1 0.5-0.1 0.7 -2.7 13.9-11.7 21-26.7 21h-6.4c-0.8 0-1.5 0.6-1.6 1.4l-3.5 22H20.4l-0.7 4.4c-0.1 0.9 0.5 1.7 1.4 1.9 0.1 0 0.2 0 0.3 0h11.3c1.3 0 2.5-1 2.7-2.3 0.2-0.8 2.2-14.2 2.4-14.8 0.2-1.3 1.4-2.3 2.7-2.3H42.1c11 0 19.6-4.5 22.1-17.3C65.2 27.8 64.7 23.3 61.9 20.2L61.9 20.2z"/>
</svg>