<svg xmlns="http://www.w3.org/2000/svg" width="211.2" height="201.437" viewBox="0 0 158.4 151.078">
    <defs>
        <style>
            * {
                stroke-linecap: butt;
                stroke-linejoin: round
            }
        </style>
    </defs>
    <g id="figure_1">
        <path id="patch_1" d="M0 151.078h158.4V0H0z" style="fill:none" />
        <g id="axes_1">
            <path id="patch_2"
                d="M79.2 141.437a65.9 65.9 0 0 0 65.898-65.898A65.9 65.9 0 0 0 79.2 9.641a65.9 65.9 0 0 0-65.898 65.898A65.9 65.9 0 0 0 79.2 141.437z"
                clip-path="url(#p05aec58a04)" style="fill:#fff;stroke:#fff;stroke-linejoin:miter" />
            <path id="PolyCollection_1"
                d="M-6.224 92.147v72.477h170.847V97.547l-2.44-.164-2.44-.188-2.441-.215-2.441-.244-2.44-.275-2.441-.31-2.441-.346-2.44-.387-2.441-.428-2.441-.472-2.44-.52-2.441-.567-2.441-.616-2.44-.668-2.441-.718-2.441-.77-2.44-.818-2.441-.868-2.441-.914-2.44-.958-2.442-.997-2.44-1.032-2.44-1.061-2.442-1.084-2.44-1.101-2.44-1.109-2.442-1.109-2.44-1.1-2.44-1.08-2.442-1.054-2.44-1.016-2.441-.968-2.44-.911-2.441-.844-2.441-.769-2.44-.684-2.441-.593-2.441-.495-2.44-.39-2.441-.283-2.441-.17-2.44-.058-2.441.057-2.441.171-2.44.283-2.441.39-2.441.495-2.44.593-2.441.684-2.441.769-2.44.844-2.442.91-2.44.969-2.44 1.016-2.442 1.053-2.44 1.082-2.44 1.1-2.442 1.108-2.44 1.109-2.44 1.1-2.442 1.085-2.44 1.061-2.441 1.032-2.44.997-2.441.958-2.441.914-2.44.868-2.441.819-2.441.77z"
                clip-path="url(#p31243c7135)" style="fill:#5c7da2" />
            <path id="PolyCollection_2"
                d="M-6.224 68.526v22.401l2.44-.718 2.442-.77 2.44-.819 2.441-.867 2.44-.915 2.441-.957 2.441-.997 2.44-1.032 2.441-1.061 2.441-1.085 2.44-1.1 2.441-1.11 2.441-1.108 2.44-1.1 2.441-1.081 2.441-1.054 2.44-1.016 2.441-.968 2.441-.91 2.44-.845 2.442-.768 2.44-.685 2.44-.592 2.442-.495 2.44-.39 2.44-.283 2.442-.171 2.44-.057 2.44.057 2.442.17 2.44.283 2.441.391 2.44.495 2.441.592 2.441.685 2.44.768 2.441.844 2.441.911 2.44.968 2.441 1.016 2.441 1.054 2.44 1.081 2.441 1.1 2.441 1.109 2.44 1.109 2.441 1.1 2.441 1.085 2.44 1.06 2.441 1.033 2.441.997 2.44.957 2.442.915 2.44.867 2.44.82 2.442.769 2.44.718 2.44.667 2.442.617 2.44.567 2.44.52 2.442.472 2.44.428 2.441.386 2.44.347 2.441.31 2.441.275 2.44.243 2.441.215 2.441.188 2.44.165V61.372l-2.44-.82-2.44-.867-2.441-.914-2.441-.958-2.44-.997-2.441-1.032-2.441-1.061-2.44-1.085-2.441-1.1-2.441-1.109-2.44-1.109-2.441-1.1-2.441-1.081-2.44-1.054-2.441-1.015-2.441-.969-2.44-.91-2.441-.844-2.441-.769-2.44-.684-2.442-.593-2.44-.495-2.44-.39-2.442-.283-2.44-.17-2.44-.058-2.442.057-2.44.171-2.44.282-2.442.391-2.44.495-2.441.593-2.44.684-2.441.769-2.441.844-2.44.91-2.441.969-2.441 1.015-2.44 1.054-2.441 1.081-2.441 1.1-2.44 1.11-2.441 1.108-2.441 1.1-2.44 1.085-2.441 1.061-2.441 1.032-2.44.997-2.441.958-2.441.914-2.44.868-2.442.819-2.44.769-2.44.718-2.442.668-2.44.616-2.44.568-2.442.519-2.44.472-2.44.428-2.442.386-2.44.347-2.441.31-2.44.275-2.441.244-2.441.214-2.44.189-2.441.164-2.441.143z"
                clip-path="url(#p31243c7135)" style="fill:#7db0bc" />
            <path id="patch_3"
                d="M146.319 75.539A67.12 67.12 0 0 0 31.74 28.079 67.12 67.12 0 0 0 79.2 142.658a67.12 67.12 0 0 0 67.119-67.119m-1.22 0a65.9 65.9 0 0 1-112.496 46.597A65.9 65.9 0 0 1 79.2 9.641a65.9 65.9 0 0 1 65.898 65.898m1.22 0z"
                clip-path="url(#p05aec58a04)" style="fill:#444876;stroke:#444876;stroke-linejoin:miter" />
            <path id="patch_4" d="M-6.224 165.844H8.42v-51.483H-6.224z" clip-path="url(#p31243c7135)"
                style="fill:#444876;stroke:#fff;stroke-linejoin:miter" />
            <path id="patch_5" d="M8.42 165.844h14.644v-57.576H8.42z" clip-path="url(#p31243c7135)"
                style="fill:#444876;stroke:#fff;stroke-linejoin:miter" />
            <path id="patch_6" d="M23.064 165.844h14.644V97.685H23.064z" clip-path="url(#p31243c7135)"
                style="fill:#444876;stroke:#fff;stroke-linejoin:miter" />
            <path id="patch_7" d="M37.708 165.844h14.645V87.486H37.708z" clip-path="url(#p31243c7135)"
                style="fill:#444876;stroke:#fff;stroke-linejoin:miter" />
            <path id="patch_8" d="M52.353 165.844h14.644V85.647H52.353z" clip-path="url(#p31243c7135)"
                style="fill:#444876;stroke:#fff;stroke-linejoin:miter" />
            <path id="patch_9" d="M66.997 165.844H81.64V93.831H66.997z" clip-path="url(#p31243c7135)"
                style="fill:#444876;stroke:#fff;stroke-linejoin:miter" />
            <path id="patch_10" d="M81.64 165.844h14.645v-60.71H81.64z" clip-path="url(#p31243c7135)"
                style="fill:#444876;stroke:#fff;stroke-linejoin:miter" />
            <path id="patch_11" d="M96.285 165.844h14.644v-52.978H96.285z" clip-path="url(#p31243c7135)"
                style="fill:#444876;stroke:#fff;stroke-linejoin:miter" />
            <path id="patch_12" d="M110.929 165.844h14.644V116.13h-14.644z" clip-path="url(#p31243c7135)"
                style="fill:#444876;stroke:#fff;stroke-linejoin:miter" />
            <g id="PathCollection_1">
                <path
                    d="M79.2 76.657a1.118 1.118 0 1 0 0-2.236 1.118 1.118 0 0 0 0 2.236zM78.552 70.933a2.227 2.227 0 1 0 0-4.454 2.227 2.227 0 0 0 0 4.454zM73.155 61.986a1.24 1.24 0 1 0 0-2.481 1.24 1.24 0 0 0 0 2.48zM74.271 74.923a2.211 2.211 0 1 0 0-4.422 2.211 2.211 0 0 0 0 4.422z"
                    clip-path="url(#p0d18b7291c)" style="fill:#afdad2;stroke:#fff;stroke-width:.25" />
                <path
                    d="M74.644 79.815a2.484 2.484 0 1 0 0-4.968 2.484 2.484 0 0 0 0 4.968zM82.8 72.44a2.521 2.521 0 1 0 0-5.044 2.521 2.521 0 0 0 0 5.043zM85.86 78.957a1.834 1.834 0 1 0 0-3.667 1.834 1.834 0 0 0 0 3.667zM72.558 67.018a1.607 1.607 0 1 0 0-3.213 1.607 1.607 0 0 0 0 3.213zM81.353 81.666a1.712 1.712 0 1 0 0-3.425 1.712 1.712 0 0 0 0 3.425zM90.674 73.87a1.816 1.816 0 1 0 0-3.63 1.816 1.816 0 0 0 0 3.63zM66.266 59.19a2.112 2.112 0 1 0 0-4.224 2.112 2.112 0 0 0 0 4.224zM93.437 86.656a1.333 1.333 0 1 0 0-2.666 1.333 1.333 0 0 0 0 2.666zM67.279 68.017a1.255 1.255 0 1 0 0-2.51 1.255 1.255 0 0 0 0 2.51zM72.953 56.98a2.355 2.355 0 1 0 0-4.71 2.355 2.355 0 0 0 0 4.71zM80.45 63.811a1.923 1.923 0 1 0 0-3.847 1.923 1.923 0 0 0 0 3.847zM96.792 91.884a1.953 1.953 0 1 0 0-3.907 1.953 1.953 0 0 0 0 3.907zM75.678 89.462a1.854 1.854 0 1 0 0-3.709 1.854 1.854 0 0 0 0 3.71zM58.952 75.968a2.6 2.6 0 1 0 0-5.2 2.6 2.6 0 0 0 0 5.2z"
                    clip-path="url(#p0d18b7291c)" style="fill:#afdad2;stroke:#fff;stroke-width:.25" />
                <path
                    d="M84.235 66.853a2.313 2.313 0 1 0 0-4.626 2.313 2.313 0 0 0 0 4.626zM78.9 95.964a2.406 2.406 0 1 0 0-4.812 2.406 2.406 0 0 0 0 4.812z"
                    clip-path="url(#p0d18b7291c)" style="fill:#afdad2;stroke:#fff;stroke-width:.25" />
                <path
                    d="M86.312 62.638a2.198 2.198 0 1 0 0-4.395 2.198 2.198 0 0 0 0 4.395zM64.599 54.593a1.72 1.72 0 1 0 0-3.439 1.72 1.72 0 0 0 0 3.44zM65.914 76.258a1.789 1.789 0 1 0 0-3.577 1.789 1.789 0 0 0 0 3.577zM60.986 66.33a2.216 2.216 0 1 0 0-4.432 2.216 2.216 0 0 0 0 4.432zM92.05 65.234a2.619 2.619 0 1 0 0-5.237 2.619 2.619 0 0 0 0 5.237zM88.419 69.459a1.31 1.31 0 1 0 0-2.622 1.31 1.31 0 0 0 0 2.622zM87.499 95.645a1.58 1.58 0 1 0 0-3.159 1.58 1.58 0 0 0 0 3.16zM62.758 71.99a2.592 2.592 0 1 0 0-5.185 2.592 2.592 0 0 0 0 5.184zM70.489 89.133a1.458 1.458 0 1 0 0-2.917 1.458 1.458 0 0 0 0 2.917zM51.076 66.97a1.638 1.638 0 1 0 0-3.277 1.638 1.638 0 0 0 0 3.277zM77.491 56.364a2.55 2.55 0 1 0 0-5.099 2.55 2.55 0 0 0 0 5.1zM82.727 59.399a1.786 1.786 0 1 0 0-3.571 1.786 1.786 0 0 0 0 3.57zM64.635 47.003a2.537 2.537 0 1 0 0-5.075 2.537 2.537 0 0 0 0 5.075zM69.93 79.461a2.222 2.222 0 1 0 0-4.443 2.222 2.222 0 0 0 0 4.443zM86.412 85.916a2.274 2.274 0 1 0 0-4.548 2.274 2.274 0 0 0 0 4.548z"
                    clip-path="url(#p0d18b7291c)" style="fill:#afdad2;stroke:#fff;stroke-width:.25" />
                <path
                    d="M90.48 83.827a2.378 2.378 0 1 0 0-4.755 2.378 2.378 0 0 0 0 4.755zM90.606 59.349a2.252 2.252 0 1 0 0-4.505 2.252 2.252 0 0 0 0 4.505zM90.747 100.612a2.112 2.112 0 1 0 0-4.225 2.112 2.112 0 0 0 0 4.225zM81.863 52.72a1.187 1.187 0 1 0 0-2.374 1.187 1.187 0 0 0 0 2.374zM94.175 79.703a2.356 2.356 0 1 0 0-4.71 2.356 2.356 0 0 0 0 4.71zM95.23 57.974a2.421 2.421 0 1 0 0-4.842 2.421 2.421 0 0 0 0 4.842zM77.01 84.965a1.638 1.638 0 1 0 0-3.276 1.638 1.638 0 0 0 0 3.276zM81.528 88.8a2.165 2.165 0 1 0 0-4.33 2.165 2.165 0 0 0 0 4.33zM105.38 87.533a2.2 2.2 0 1 0 0-4.399 2.2 2.2 0 0 0 0 4.399zM70.812 71.488a1.797 1.797 0 1 0 0-3.594 1.797 1.797 0 0 0 0 3.594zM96.691 75.163a2.249 2.249 0 1 0 0-4.498 2.249 2.249 0 0 0 0 4.498zM100.338 79.742a1.332 1.332 0 1 0 0-2.663 1.332 1.332 0 0 0 0 2.663zM60.539 60.604a1.85 1.85 0 1 0 0-3.7 1.85 1.85 0 0 0 0 3.7zM105.644 80.683a1.803 1.803 0 1 0 0-3.607 1.803 1.803 0 0 0 0 3.607zM66.853 64.215a2.413 2.413 0 1 0 0-4.826 2.413 2.413 0 0 0 0 4.826zM85.509 102.118a1.888 1.888 0 1 0 0-3.776 1.888 1.888 0 0 0 0 3.776zM70.665 94.885a1.88 1.88 0 1 0 0-3.761 1.88 1.88 0 0 0 0 3.761zM70.836 84.23a2.513 2.513 0 1 0 0-5.027 2.513 2.513 0 0 0 0 5.027zM62.1 79.265a1.734 1.734 0 1 0 0-3.468 1.734 1.734 0 0 0 0 3.468zM87.26 91.865a2.613 2.613 0 1 0 0-5.226 2.613 2.613 0 0 0 0 5.226zM106.742 75.353a1.499 1.499 0 1 0 0-2.998 1.499 1.499 0 0 0 0 2.998zM89.496 53.523a1.844 1.844 0 1 0 0-3.69 1.844 1.844 0 0 0 0 3.69zM90.207 105.522a2.35 2.35 0 1 0 0-4.699 2.35 2.35 0 0 0 0 4.7zM96.146 101.006a2.422 2.422 0 1 0 0-4.844 2.422 2.422 0 0 0 0 4.844zM70.27 101.176a2.227 2.227 0 1 0 0-4.453 2.227 2.227 0 0 0 0 4.453zM99.41 65.67a1.85 1.85 0 1 0 0-3.702 1.85 1.85 0 0 0 0 3.701zM98.25 85.944a1.657 1.657 0 1 0 0-3.313 1.657 1.657 0 0 0 0 3.313zM96.203 105.707a1.32 1.32 0 1 0 0-2.64 1.32 1.32 0 0 0 0 2.64zM82.62 106.212a1.963 1.963 0 1 0 0-3.926 1.963 1.963 0 0 0 0 3.926zM103.207 92.969a2.373 2.373 0 1 0 0-4.745 2.373 2.373 0 0 0 0 4.745zM92.357 94.672a1.85 1.85 0 1 0 0-3.7 1.85 1.85 0 0 0 0 3.7zM62.597 90.42a2.412 2.412 0 1 0 0-4.823 2.412 2.412 0 0 0 0 4.824zM96.284 69.715a1.91 1.91 0 1 0 0-3.818 1.91 1.91 0 0 0 0 3.818z"
                    clip-path="url(#p0d18b7291c)" style="fill:#afdad2;stroke:#fff;stroke-width:.25" />
                <path
                    d="M73.662 104.467a2.566 2.566 0 1 0 0-5.131 2.566 2.566 0 0 0 0 5.131zM109.944 89.528a2.536 2.536 0 1 0 0-5.072 2.536 2.536 0 0 0 0 5.072zM104.58 69.126a2.347 2.347 0 1 0 0-4.693 2.347 2.347 0 0 0 0 4.693zM45.625 67.458a1.232 1.232 0 1 0 0-2.464 1.232 1.232 0 0 0 0 2.464zM59.171 50.829a2.458 2.458 0 1 0 0-4.916 2.458 2.458 0 0 0 0 4.916zM60.182 84.272a1.935 1.935 0 1 0 0-3.87 1.935 1.935 0 0 0 0 3.87zM82.154 97.87a1.327 1.327 0 1 0 0-2.654 1.327 1.327 0 0 0 0 2.654zM53.915 53.263a2.314 2.314 0 1 0 0-4.627 2.314 2.314 0 0 0 0 4.627zM65.44 86.842a2.374 2.374 0 1 0-.001-4.749 2.374 2.374 0 0 0 0 4.749zM100.852 99.264a1.151 1.151 0 1 0 0-2.303 1.151 1.151 0 0 0 0 2.303zM69.244 43.98a2.613 2.613 0 1 0 0-5.225 2.613 2.613 0 0 0 0 5.225zM100.2 60.773a1.564 1.564 0 1 0 0-3.128 1.564 1.564 0 0 0 0 3.128zM49.972 47.776a1.756 1.756 0 1 0 0-3.51 1.756 1.756 0 0 0 0 3.51zM108.387 92.374a1.214 1.214 0 1 0 0-2.429 1.214 1.214 0 0 0 0 2.429zM112.601 80.149a2.19 2.19 0 1 0 0-4.381 2.19 2.19 0 0 0 0 4.381zM52.92 75.674a2.285 2.285 0 1 0 0-4.57 2.285 2.285 0 0 0 0 4.57zM51.104 82.15a2.52 2.52 0 1 0 0-5.042 2.52 2.52 0 0 0 0 5.041zM105.856 108.26a2.157 2.157 0 1 0 0-4.313 2.157 2.157 0 0 0 0 4.314zM119.245 73.531a2.192 2.192 0 1 0 0-4.384 2.192 2.192 0 0 0 0 4.384zM97.733 51.052a2.189 2.189 0 1 0 0-4.377 2.189 2.189 0 0 0 0 4.377zM85.557 47.421a2.507 2.507 0 1 0 0-5.014 2.507 2.507 0 0 0 0 5.014zM112.06 73.182a1.73 1.73 0 1 0 0-3.46 1.73 1.73 0 0 0 0 3.46zM58.14 70.37a2.28 2.28 0 1 0 0-4.56 2.28 2.28 0 0 0 0 4.56zM118.779 84.592a1.444 1.444 0 1 0 0-2.888 1.444 1.444 0 0 0 0 2.888z"
                    clip-path="url(#p0d18b7291c)" style="fill:#afdad2;stroke:#fff;stroke-width:.25" />
                <path
                    d="M100.888 55.215a2.563 2.563 0 1 0 0-5.126 2.563 2.563 0 0 0 0 5.126zM55.573 85.155a1.69 1.69 0 1 0 0-3.38 1.69 1.69 0 0 0 0 3.38zM101.527 73.354a2.407 2.407 0 1 0 0-4.814 2.407 2.407 0 0 0 0 4.814zM85.773 111.227a2.414 2.414 0 1 0 0-4.83 2.414 2.414 0 0 0 0 4.83zM45.637 57.393a2.086 2.086 0 1 0 0-4.171 2.086 2.086 0 0 0 0 4.171zM45.407 85.576a2.408 2.408 0 1 0 0-4.817 2.408 2.408 0 0 0 0 4.817z"
                    clip-path="url(#p0d18b7291c)" style="fill:#afdad2;stroke:#fff;stroke-width:.25" />
                <path
                    d="M103.122 51.1a2.472 2.472 0 1 0 0-4.944 2.472 2.472 0 0 0 0 4.944zM76.189 100.023a2.473 2.473 0 1 0 0-4.946 2.473 2.473 0 0 0 0 4.946zM79.921 102.164a1.498 1.498 0 1 0 0-2.996 1.498 1.498 0 0 0 0 2.996zM113.614 94.595a1.798 1.798 0 1 0 0-3.596 1.798 1.798 0 0 0 0 3.596zM105.358 98.186a1.458 1.458 0 1 0 0-2.915 1.458 1.458 0 0 0 0 2.915zM100.613 111.42a2.037 2.037 0 1 0 0-4.074 2.037 2.037 0 0 0 0 4.075zM92.414 112.204a1.542 1.542 0 1 0 0-3.084 1.542 1.542 0 0 0 0 3.084zM114.529 67.295a1.477 1.477 0 1 0 0-2.954 1.477 1.477 0 0 0 0 2.954zM55.362 78.903a1.156 1.156 0 1 0 0-2.312 1.156 1.156 0 0 0 0 2.312zM55.507 61.278a1.544 1.544 0 1 0 0-3.09 1.544 1.544 0 0 0 0 3.09zM58.316 95.496a2.452 2.452 0 1 0 0-4.903 2.452 2.452 0 0 0 0 4.903zM111.053 84.762a2.354 2.354 0 1 0 0-4.708 2.354 2.354 0 0 0 0 4.708zM48.29 40.879a2.513 2.513 0 1 0 0-5.026 2.513 2.513 0 0 0 0 5.026zM55.072 45.582a1.944 1.944 0 1 0 0-3.887 1.944 1.944 0 0 0 0 3.887zM77.469 108.986a1.812 1.812 0 1 0 0-3.624 1.812 1.812 0 0 0 0 3.624zM72.144 110.504a1.542 1.542 0 1 0 0-3.084 1.542 1.542 0 0 0 0 3.084zM53.837 91.394a1.983 1.983 0 1 0 0-3.967 1.983 1.983 0 0 0 0 3.967zM62.302 98.174a1.526 1.526 0 1 0 0-3.052 1.526 1.526 0 0 0 0 3.052zM88.588 39.781a2.273 2.273 0 1 0 0-4.546 2.273 2.273 0 0 0 0 4.546zM111.463 101.003a2.063 2.063 0 1 0 0-4.125 2.063 2.063 0 0 0 0 4.125zM40.92 51.83a1.378 1.378 0 1 0 0-2.756 1.378 1.378 0 0 0 0 2.755zM115.032 88.011a1.417 1.417 0 1 0 0-2.833 1.417 1.417 0 0 0 0 2.833zM48.545 77.672a2.155 2.155 0 1 0 0-4.31 2.155 2.155 0 0 0 0 4.31zM91.978 49.58a1.747 1.747 0 1 0 0-3.495 1.747 1.747 0 0 0 0 3.495zM45.497 50.532a1.635 1.635 0 1 0 0-3.27 1.635 1.635 0 0 0 0 3.27zM47.63 64.617a2.567 2.567 0 1 0 0-5.133 2.567 2.567 0 0 0 0 5.133zM121.598 92.92a2.18 2.18 0 1 0 0-4.359 2.18 2.18 0 0 0 0 4.36zM37.15 45.352a2.167 2.167 0 1 0 0-4.335 2.167 2.167 0 0 0 0 4.335zM106.261 103.343a1.889 1.889 0 1 0 0-3.777 1.889 1.889 0 0 0 0 3.777zM107.004 62.862a2.14 2.14 0 1 0 0-4.278 2.14 2.14 0 0 0 0 4.278zM37.433 65.92a2.104 2.104 0 1 0 0-4.208 2.104 2.104 0 0 0 0 4.209zM101.65 104.237a1.637 1.637 0 1 0 0-3.274 1.637 1.637 0 0 0 0 3.274zM125.585 96.973a1.198 1.198 0 1 0 0-2.396 1.198 1.198 0 0 0 0 2.396zM77.735 113.78a2.121 2.121 0 1 0 0-4.242 2.121 2.121 0 0 0 0 4.242zM76.68 118.383a2.315 2.315 0 1 0 0-4.63 2.315 2.315 0 0 0 0 4.63zM66.23 91.868a1.33 1.33 0 1 0 0-2.66 1.33 1.33 0 0 0 0 2.66zM106.627 55.672a1.662 1.662 0 1 0 0-3.323 1.662 1.662 0 0 0 0 3.323zM70.094 107.238a2.528 2.528 0 1 0 0-5.056 2.528 2.528 0 0 0 0 5.056zM68.762 118.259a1.849 1.849 0 1 0 0-3.698 1.849 1.849 0 0 0 0 3.698zM120.85 66.286a1.856 1.856 0 1 0 0-3.712 1.856 1.856 0 0 0 0 3.712zM98.499 96.72a2.323 2.323 0 1 0 0-4.645 2.323 2.323 0 0 0 0 4.646zM43.124 73.912a1.564 1.564 0 1 0 0-3.127 1.564 1.564 0 0 0 0 3.127zM58.084 90.005a2.15 2.15 0 1 0 0-4.3 2.15 2.15 0 0 0 0 4.3zM47.893 93.95a1.767 1.767 0 1 0 0-3.533 1.767 1.767 0 0 0 0 3.533zM98.183 44.63a1.831 1.831 0 1 0 0-3.661 1.831 1.831 0 0 0 0 3.662zM111.248 108.395a2.448 2.448 0 1 0 0-4.897 2.448 2.448 0 0 0 0 4.897z"
                    clip-path="url(#p0d18b7291c)" style="fill:#afdad2;stroke:#fff;stroke-width:.25" />
                <path
                    d="M115.614 106.3a2.559 2.559 0 1 0 0-5.118 2.559 2.559 0 0 0 0 5.117zM80.39 119.673a1.146 1.146 0 1 0 0-2.292 1.146 1.146 0 0 0 0 2.292zM50.028 86.968a1.404 1.404 0 1 0 0-2.809 1.404 1.404 0 0 0 0 2.809zM108.373 112.901a2.528 2.528 0 1 0 0-5.056 2.528 2.528 0 0 0 0 5.056zM115.667 99.67a2.225 2.225 0 1 0 0-4.449 2.225 2.225 0 0 0 0 4.45zM65.316 105.055a2.168 2.168 0 1 0 0-4.335 2.168 2.168 0 0 0 0 4.335zM45.677 44.396a1.13 1.13 0 1 0 0-2.26 1.13 1.13 0 0 0 0 2.26zM103.754 115.407a2.424 2.424 0 1 0 0-4.849 2.424 2.424 0 0 0 0 4.849zM60.804 42.635a2.11 2.11 0 1 0 0-4.218 2.11 2.11 0 0 0 0 4.218zM76.827 43.856a1.82 1.82 0 1 0 0-3.64 1.82 1.82 0 0 0 0 3.64zM80.159 32.5a1.191 1.191 0 1 0 0-2.383 1.191 1.191 0 0 0 0 2.383zM127.141 84.99a2.043 2.043 0 1 0 0-4.087 2.043 2.043 0 0 0 0 4.086zM82.69 93.802a2.487 2.487 0 1 0 0-4.973 2.487 2.487 0 0 0 0 4.973zM117.214 81.467a2.498 2.498 0 1 0 0-4.995 2.498 2.498 0 0 0 0 4.995zM120.387 109.925a1.807 1.807 0 1 0 0-3.614 1.807 1.807 0 0 0 0 3.614zM84.032 39.358a1.99 1.99 0 1 0 0-3.982 1.99 1.99 0 0 0 0 3.982zM64.145 38.196a2.045 2.045 0 1 0 0-4.09 2.045 2.045 0 0 0 0 4.09zM123.777 79.358a1.424 1.424 0 1 0 0-2.849 1.424 1.424 0 0 0 0 2.849zM85.041 116.89a1.322 1.322 0 1 0 0-2.644 1.322 1.322 0 0 0 0 2.643zM72.308 121.333a2.24 2.24 0 1 0 0-4.479 2.24 2.24 0 0 0 0 4.479zM124.3 75.002a2.528 2.528 0 1 0 0-5.056 2.528 2.528 0 0 0 0 5.056zM38.523 57.854a1.66 1.66 0 1 0 0-3.32 1.66 1.66 0 0 0 0 3.32zM129.173 74.589a1.475 1.475 0 1 0 0-2.95 1.475 1.475 0 0 0 0 2.95zM114.059 112.718a1.557 1.557 0 1 0 0-3.114 1.557 1.557 0 0 0 0 3.114zM105.802 120.57a1.526 1.526 0 1 0 0-3.051 1.526 1.526 0 0 0 0 3.051z"
                    clip-path="url(#p0d18b7291c)" style="fill:#afdad2;stroke:#fff;stroke-width:.25" />
                <path
                    d="M126.653 70.542a2.424 2.424 0 1 0 0-4.848 2.424 2.424 0 0 0 0 4.848zM93.19 40.215a2.528 2.528 0 1 0 0-5.055 2.528 2.528 0 0 0 0 5.055zM132.106 88.605a2.5 2.5 0 1 0 0-5.002 2.5 2.5 0 0 0 0 5.002zM48.01 102.988a2.308 2.308 0 1 0 0-4.616 2.308 2.308 0 0 0 0 4.616zM54.566 100.497a2.513 2.513 0 1 0 0-5.026 2.513 2.513 0 0 0 0 5.026zM68.8 38.503a2.32 2.32 0 1 0 0-4.64 2.32 2.32 0 0 0 0 4.64zM41.841 40.374a2.151 2.151 0 1 0 0-4.303 2.151 2.151 0 0 0 0 4.303zM53.813 34.82a2.487 2.487 0 1 0 0-4.975 2.487 2.487 0 0 0 0 4.975zM120.078 59.588a1.295 1.295 0 1 0 0-2.59 1.295 1.295 0 0 0 0 2.59zM129.63 64.077a2.243 2.243 0 1 0 0-4.485 2.243 2.243 0 0 0 0 4.485zM121.606 117.809a2.337 2.337 0 1 0 0-4.674 2.337 2.337 0 0 0 0 4.674zM100.474 38.169a1.536 1.536 0 1 0 0-3.073 1.536 1.536 0 0 0 0 3.073zM46.964 31.895a1.954 1.954 0 1 0 0-3.908 1.954 1.954 0 0 0 0 3.908zM55.777 40.648a1.663 1.663 0 1 0 0-3.327 1.663 1.663 0 0 0 0 3.327zM130.831 81.416a2.05 2.05 0 1 0 0-4.1 2.05 2.05 0 0 0 0 4.1zM88.375 113.79a1.342 1.342 0 1 0 0-2.684 1.342 1.342 0 0 0 0 2.685zM41.325 98.116a1.597 1.597 0 1 0 0-3.193 1.597 1.597 0 0 0 0 3.193zM59.76 37.038a1.69 1.69 0 1 0 0-3.38 1.69 1.69 0 0 0 0 3.38zM99.362 117.994a2.332 2.332 0 1 0 0-4.664 2.332 2.332 0 0 0 0 4.664zM112.327 58.8a2.21 2.21 0 1 0 0-4.42 2.21 2.21 0 0 0 0 4.42zM42.92 80.392a1.986 1.986 0 1 0 0-3.972 1.986 1.986 0 0 0 0 3.972zM33.665 41.33a1.701 1.701 0 1 0 0-3.402 1.701 1.701 0 0 0 0 3.402zM38.35 34.716a1.56 1.56 0 1 0 0-3.121 1.56 1.56 0 0 0 0 3.121zM36.591 75.829a2.575 2.575 0 1 0 0-5.15 2.575 2.575 0 0 0 0 5.15zM67.948 112.472a1.361 1.361 0 1 0 0-2.722 1.361 1.361 0 0 0 0 2.722zM38.66 84.772a1.993 1.993 0 1 0 0-3.987 1.993 1.993 0 0 0 0 3.987zM139.205 84.591a1.313 1.313 0 1 0 0-2.625 1.313 1.313 0 0 0 0 2.625zM74.354 39.56a1.308 1.308 0 1 0 0-2.615 1.308 1.308 0 0 0 0 2.616zM32.465 49.942a2.162 2.162 0 1 0 0-4.324 2.162 2.162 0 0 0 0 4.324zM27.636 46.297a1.625 1.625 0 1 0 0-3.25 1.625 1.625 0 0 0 0 3.25zM105.244 45.088a2.273 2.273 0 1 0 0-4.546 2.273 2.273 0 0 0 0 4.546zM123.04 87.117a1.923 1.923 0 1 0 0-3.847 1.923 1.923 0 0 0 0 3.847zM110.297 66.724a2.513 2.513 0 1 0 0-5.025 2.513 2.513 0 0 0 0 5.025zM132.785 67.698a1.187 1.187 0 1 0 0-2.375 1.187 1.187 0 0 0 0 2.375zM109.642 50.919a1.533 1.533 0 1 0 0-3.065 1.533 1.533 0 0 0 0 3.065zM47.136 109.063a2.567 2.567 0 1 0 0-5.135 2.567 2.567 0 0 0 0 5.135zM47.79 72.998a1.827 1.827 0 1 0 0-3.654 1.827 1.827 0 0 0 0 3.654zM136.872 62.754a2.543 2.543 0 1 0 0-5.087 2.543 2.543 0 0 0 0 5.087zM86.004 124.72a1.958 1.958 0 1 0 0-3.918 1.958 1.958 0 0 0 0 3.917zM78.815 39.181a1.635 1.635 0 1 0 0-3.27 1.635 1.635 0 0 0 0 3.27zM41.648 47.67a2.52 2.52 0 1 0 0-5.041 2.52 2.52 0 0 0 0 5.04zM39.021 70.407a2.43 2.43 0 1 0 0-4.858 2.43 2.43 0 0 0 0 4.858z"
                    clip-path="url(#p0d18b7291c)" style="fill:#afdad2;stroke:#fff;stroke-width:.25" />
                <path
                    d="M115.565 62.443a2.56 2.56 0 1 0 0-5.12 2.56 2.56 0 0 0 0 5.12zM79.661 125.365a1.573 1.573 0 1 0 0-3.146 1.573 1.573 0 0 0 0 3.146zM32.597 99.395a2.459 2.459 0 1 0 0-4.918 2.459 2.459 0 0 0 0 4.918zM61.936 119.525a1.448 1.448 0 1 0 0-2.896 1.448 1.448 0 0 0 0 2.896zM97.169 36.211a2.527 2.527 0 1 0 0-5.053 2.527 2.527 0 0 0 0 5.053zM55.636 66.301a1.901 1.901 0 1 0 0-3.802 1.901 1.901 0 0 0 0 3.802zM114.4 54.27a2.07 2.07 0 1 0 0-4.142 2.07 2.07 0 0 0 0 4.141zM33.805 60.018a1.466 1.466 0 1 0 0-2.933 1.466 1.466 0 0 0 0 2.933zM93.628 117.824a2.003 2.003 0 1 0 0-4.005 2.003 2.003 0 0 0 0 4.005zM84.968 130.057a2.207 2.207 0 1 0 0-4.415 2.207 2.207 0 0 0 0 4.415zM70.436 31.413a2.016 2.016 0 1 0 0-4.032 2.016 2.016 0 0 0 0 4.032zM134.216 53.833a1.914 1.914 0 1 0 0-3.829 1.914 1.914 0 0 0 0 3.83zM85.647 55.572a1.724 1.724 0 1 0 0-3.448 1.724 1.724 0 0 0 0 3.448zM128.085 92.734a2.506 2.506 0 1 0 0-5.012 2.506 2.506 0 0 0 0 5.012zM93.08 125.473a2.394 2.394 0 1 0 0-4.787 2.394 2.394 0 0 0 0 4.787zM39.84 90.053a2.353 2.353 0 1 0 0-4.705 2.353 2.353 0 0 0 0 4.705zM112.326 34.19a2.06 2.06 0 1 0 0-4.12 2.06 2.06 0 0 0 0 4.12zM59.555 104.903a1.81 1.81 0 1 0 0-3.62 1.81 1.81 0 0 0 0 3.62zM84.927 33.14a1.64 1.64 0 1 0 0-3.28 1.64 1.64 0 0 0 0 3.28zM121.128 53.912a2.415 2.415 0 1 0 0-4.83 2.415 2.415 0 0 0 0 4.83zM120.585 102.477a1.246 1.246 0 1 0 0-2.492 1.246 1.246 0 0 0 0 2.492zM49.173 54.776a2.138 2.138 0 1 0 0-4.277 2.138 2.138 0 0 0 0 4.277zM109.634 123.413a1.98 1.98 0 1 0 0-3.96 1.98 1.98 0 0 0 0 3.96zM90.489 33.846a2.047 2.047 0 1 0 0-4.094 2.047 2.047 0 0 0 0 4.094zM61.612 115.283a2.506 2.506 0 1 0 0-5.013 2.506 2.506 0 0 0 0 5.013zM104.984 35.842a1.696 1.696 0 1 0 0-3.393 1.696 1.696 0 0 0 0 3.393zM97.426 123.028a2.488 2.488 0 1 0 0-4.977 2.488 2.488 0 0 0 0 4.977zM53.486 113.31a1.959 1.959 0 1 0 0-3.917 1.959 1.959 0 0 0 0 3.917zM96.682 113.987a1.955 1.955 0 1 0 0-3.91 1.955 1.955 0 0 0 0 3.91zM42.413 93.053a1.27 1.27 0 1 0 0-2.541 1.27 1.27 0 0 0 0 2.541zM120.998 39.518a1.53 1.53 0 1 0 0-3.058 1.53 1.53 0 0 0 0 3.058zM63.777 28.283a1.318 1.318 0 1 0 0-2.636 1.318 1.318 0 0 0 0 2.636zM75.76 24.665a1.93 1.93 0 1 0 0-3.86 1.93 1.93 0 0 0 0 3.86zM64.331 110.67a2.413 2.413 0 1 0 0-4.825 2.413 2.413 0 0 0 0 4.825zM135.435 76.15a2.01 2.01 0 1 0 0-4.022 2.01 2.01 0 0 0 0 4.022z"
                    clip-path="url(#p0d18b7291c)" style="fill:#afdad2;stroke:#fff;stroke-width:.25" />
                <path
                    d="M58.151 111.881a2.149 2.149 0 1 0 0-4.297 2.149 2.149 0 0 0 0 4.297zM120.657 35.007a2.542 2.542 0 1 0 0-5.084 2.542 2.542 0 0 0 0 5.084zM112.334 118.427a1.836 1.836 0 1 0 0-3.673 1.836 1.836 0 0 0 0 3.673zM56.761 118.442a2.423 2.423 0 1 0 0-4.846 2.423 2.423 0 0 0 0 4.846zM72.806 115.338a1.92 1.92 0 1 0 0-3.84 1.92 1.92 0 0 0 0 3.84zM33.718 82.655a1.513 1.513 0 1 0 0-3.026 1.513 1.513 0 0 0 0 3.026zM136.977 81.823a2.406 2.406 0 1 0 0-4.812 2.406 2.406 0 0 0 0 4.812zM130.964 104.693a2.133 2.133 0 1 0 0-4.266 2.133 2.133 0 0 0 0 4.266zM72.849 36.046a2.402 2.402 0 1 0 0-4.805 2.402 2.402 0 0 0 0 4.805z"
                    clip-path="url(#p0d18b7291c)" style="fill:#afdad2;stroke:#fff;stroke-width:.25" />
                <path
                    d="M140.158 78.652a2.407 2.407 0 1 0 0-4.813 2.407 2.407 0 0 0 0 4.813zM49.905 119.897a2.136 2.136 0 1 0 0-4.271 2.136 2.136 0 0 0 0 4.27zM37.646 96.264a2.552 2.552 0 1 0 0-5.104 2.552 2.552 0 0 0 0 5.104zM118.854 49.475a2.05 2.05 0 1 0 0-4.101 2.05 2.05 0 0 0 0 4.101zM33.224 90.337a2.001 2.001 0 1 0 0-4.002 2.001 2.001 0 0 0 0 4.002zM138.436 72.762a1.987 1.987 0 1 0 0-3.974 1.987 1.987 0 0 0 0 3.974zM81.736 27.044a2.396 2.396 0 1 0 0-4.793 2.396 2.396 0 0 0 0 4.793zM134.163 91.94a1.505 1.505 0 1 0 0-3.01 1.505 1.505 0 0 0 0 3.01zM102.51 29.963a2.483 2.483 0 1 0 0-4.965 2.483 2.483 0 0 0 0 4.965zM115.608 122.108a2.247 2.247 0 1 0 0-4.494 2.247 2.247 0 0 0 0 4.494zM130.18 99.734a1.78 1.78 0 1 0 0-3.56 1.78 1.78 0 0 0 0 3.56zM52.928 95.957a2.194 2.194 0 1 0 0-4.388 2.194 2.194 0 0 0 0 4.388zM128.21 45.569a2.35 2.35 0 1 0 0-4.7 2.35 2.35 0 0 0 0 4.7zM128.45 53.373a1.477 1.477 0 1 0 0-2.954 1.477 1.477 0 0 0 0 2.954zM75.217 17.115a1.342 1.342 0 1 0 0-2.683 1.342 1.342 0 0 0 0 2.683zM46.765 114.138a1.559 1.559 0 1 0 0-3.117 1.559 1.559 0 0 0 0 3.117zM96.647 31.36a2.253 2.253 0 1 0 0-4.507 2.253 2.253 0 0 0 0 4.507zM93.632 27.032a1.819 1.819 0 1 0 0-3.638 1.819 1.819 0 0 0 0 3.638z"
                    clip-path="url(#p0d18b7291c)" style="fill:#afdad2;stroke:#fff;stroke-width:.25" />
                <path
                    d="M84.491 23.071a2.334 2.334 0 1 0 0-4.668 2.334 2.334 0 0 0 0 4.668zM58.748 32.589a2.616 2.616 0 1 0 0-5.233 2.616 2.616 0 0 0 0 5.233zM51.803 106.792a1.373 1.373 0 1 0 0-2.747 1.373 1.373 0 0 0 0 2.747zM80.066 131.355a2 2 0 1 0 0-4.001 2 2 0 0 0 0 4.001zM134.988 97.349a1.937 1.937 0 1 0 0-3.873 1.937 1.937 0 0 0 0 3.873zM42.607 28.736a1.425 1.425 0 1 0 0-2.849 1.425 1.425 0 0 0 0 2.85zM49.38 27.781a1.847 1.847 0 1 0 0-3.694 1.847 1.847 0 0 0 0 3.694zM86.754 137.347a1.34 1.34 0 1 0 0-2.679 1.34 1.34 0 0 0 0 2.68zM111.688 46.021a1.296 1.296 0 1 0 0-2.591 1.296 1.296 0 0 0 0 2.591zM137.64 89.185a1.56 1.56 0 1 0 0-3.12 1.56 1.56 0 0 0 0 3.12zM121.106 98.21a2.432 2.432 0 1 0 0-4.863 2.432 2.432 0 0 0 0 4.863zM29.656 95.376a2.088 2.088 0 1 0 0-4.175 2.088 2.088 0 0 0 0 4.175zM125.154 61.298a1.812 1.812 0 1 0 0-3.623 1.812 1.812 0 0 0 0 3.623zM89.686 119.989a1.893 1.893 0 1 0 0-3.786 1.893 1.893 0 0 0 0 3.786zM111.435 38.97a2.277 2.277 0 1 0 0-4.553 2.277 2.277 0 0 0 0 4.553zM86.46 26.97a1.264 1.264 0 1 0 0-2.528 1.264 1.264 0 0 0 0 2.528zM59.615 27.225a2.398 2.398 0 1 0 0-4.796 2.398 2.398 0 0 0 0 4.796zM24.432 56.617a2.085 2.085 0 1 0 0-4.17 2.085 2.085 0 0 0 0 4.17zM29.986 57.336a2.422 2.422 0 1 0 0-4.844 2.422 2.422 0 0 0 0 4.844zM49.558 35.983a2.331 2.331 0 1 0 0-4.662 2.331 2.331 0 0 0 0 4.662zM25.117 51.428a1.807 1.807 0 1 0 0-3.614 1.807 1.807 0 0 0 0 3.614zM97.963 25.202a1.977 1.977 0 1 0 0-3.954 1.977 1.977 0 0 0 0 3.954zM42.927 33.503a1.799 1.799 0 1 0 0-3.598 1.799 1.799 0 0 0 0 3.598z"
                    clip-path="url(#p0d18b7291c)" style="fill:#afdad2;stroke:#fff;stroke-width:.25" />
                <path
                    d="M34.205 55.173a2.523 2.523 0 1 0 0-5.047 2.523 2.523 0 0 0 0 5.047zM116.226 38.003a2.472 2.472 0 1 0 0-4.945 2.472 2.472 0 0 0 0 4.945zM53.468 124.134a2.54 2.54 0 1 0 0-5.081 2.54 2.54 0 0 0 0 5.08zM32.16 69.66a2.014 2.014 0 1 0 0-4.03 2.014 2.014 0 0 0 0 4.03zM57.918 123.636a1.456 1.456 0 1 0 0-2.911 1.456 1.456 0 0 0 0 2.911zM97.256 128.462a1.474 1.474 0 1 0 0-2.949 1.474 1.474 0 0 0 0 2.95zM125.139 37.708a1.7 1.7 0 1 0 0-3.4 1.7 1.7 0 0 0 0 3.4zM66.358 33.5a1.894 1.894 0 1 0 0-3.788 1.894 1.894 0 0 0 0 3.788zM91.252 131.592a1.225 1.225 0 1 0 0-2.45 1.225 1.225 0 0 0 0 2.45zM107.931 31.371a1.586 1.586 0 1 0 0-3.172 1.586 1.586 0 0 0 0 3.172zM31.03 78.123a2.415 2.415 0 1 0 0-4.83 2.415 2.415 0 0 0 0 4.83zM125.291 108.457a2.022 2.022 0 1 0 0-4.044 2.022 2.022 0 0 0 0 4.044zM107.25 27.397a2.587 2.587 0 1 0 0-5.174 2.587 2.587 0 0 0 0 5.174zM75.355 31.805a2.313 2.313 0 1 0 0-4.625 2.313 2.313 0 0 0 0 4.625zM124.23 42.986a1.984 1.984 0 1 0 0-3.969 1.984 1.984 0 0 0 0 3.969zM96.366 134.577a1.848 1.848 0 1 0 0-3.696 1.848 1.848 0 0 0 0 3.696zM26.615 80.849a2.329 2.329 0 1 0 0-4.658 2.329 2.329 0 0 0 0 4.658zM101.508 131.674a1.988 1.988 0 1 0 0-3.977 1.988 1.988 0 0 0 0 3.977zM29.51 60.9a1.164 1.164 0 1 0 0-2.327 1.164 1.164 0 0 0 0 2.328z"
                    clip-path="url(#p0d18b7291c)" style="fill:#afdad2;stroke:#fff;stroke-width:.25" />
                <path
                    d="M29.745 73.517a2.099 2.099 0 1 0 0-4.198 2.099 2.099 0 0 0 0 4.198zM53.967 28.632a2.173 2.173 0 1 0 0-4.345 2.173 2.173 0 0 0 0 4.345zM125.105 101.728a1.561 1.561 0 1 0 0-3.123 1.561 1.561 0 0 0 0 3.123zM72.986 131.371a1.522 1.522 0 1 0 0-3.044 1.522 1.522 0 0 0 0 3.044zM130.876 109.655a2.394 2.394 0 1 0 0-4.788 2.394 2.394 0 0 0 0 4.788zM116.06 76.837a2.199 2.199 0 1 0 0-4.397 2.199 2.199 0 0 0 0 4.397zM78.31 137.135a2.23 2.23 0 1 0 0-4.46 2.23 2.23 0 0 0 0 4.46zM36.891 79.295a1.498 1.498 0 1 0 0-2.996 1.498 1.498 0 0 0 0 2.996zM102.292 125.842a1.657 1.657 0 1 0 0-3.314 1.657 1.657 0 0 0 0 3.314zM75.84 127.96a1.478 1.478 0 1 0 0-2.956 1.478 1.478 0 0 0 0 2.957zM83.5 134.623a2.372 2.372 0 1 0 0-4.743 2.372 2.372 0 0 0 0 4.743zM69.826 25.09a1.552 1.552 0 1 0 0-3.104 1.552 1.552 0 0 0 0 3.103zM45.09 89.245a1.163 1.163 0 1 0 0-2.326 1.163 1.163 0 0 0 0 2.326zM67.632 127.635a2.326 2.326 0 1 0 0-4.651 2.326 2.326 0 0 0 0 4.65zM34.068 106.773a1.698 1.698 0 1 0 0-3.395 1.698 1.698 0 0 0 0 3.395zM114.865 29.868a1.953 1.953 0 1 0 0-3.905 1.953 1.953 0 0 0 0 3.905zM107.246 128.728a2.151 2.151 0 1 0 0-4.302 2.151 2.151 0 0 0 0 4.302zM65.49 21.956a2.428 2.428 0 1 0 0-4.857 2.428 2.428 0 0 0 0 4.857zM103.583 24.275a2.245 2.245 0 1 0 0-4.491 2.245 2.245 0 0 0 0 4.49zM66.167 81.646a2.134 2.134 0 1 0 0-4.269 2.134 2.134 0 0 0 0 4.269zM64.064 133.37a2.436 2.436 0 1 0 0-4.872 2.436 2.436 0 0 0 0 4.872zM54.545 21.881a1.799 1.799 0 1 0 0-3.598 1.799 1.799 0 0 0 0 3.598zM76.38 123.408a2.551 2.551 0 1 0-.001-5.102 2.551 2.551 0 0 0 0 5.102zM58.722 128.787a1.88 1.88 0 1 0 0-3.76 1.88 1.88 0 0 0 0 3.76zM130.009 59.095a1.98 1.98 0 1 0 0-3.959 1.98 1.98 0 0 0 0 3.96zM58.865 20.49a1.984 1.984 0 1 0 0-3.968 1.984 1.984 0 0 0 0 3.968zM28.675 83.956a1.189 1.189 0 1 0 0-2.377 1.189 1.189 0 0 0 0 2.377zM112.82 127.834a2.4 2.4 0 1 0 0-4.8 2.4 2.4 0 0 0 0 4.8zM89.45 18.003a2.328 2.328 0 1 0 0-4.656 2.328 2.328 0 0 0 0 4.656zM24.969 92.138a1.569 1.569 0 1 0 0-3.138 1.569 1.569 0 0 0 0 3.138zM41.351 103.755a1.976 1.976 0 1 0 0-3.951 1.976 1.976 0 0 0 0 3.951zM67.389 122.673a2.037 2.037 0 1 0 0-4.074 2.037 2.037 0 0 0 0 4.074zM62.163 125.214a1.872 1.872 0 1 0 0-3.744 1.872 1.872 0 0 0 0 3.744zM50.51 129.428a1.32 1.32 0 1 0 0-2.638 1.32 1.32 0 0 0 0 2.638z"
                    clip-path="url(#p0d18b7291c)" style="fill:#afdad2;stroke:#fff;stroke-width:.25" />
                <path
                    d="M128.254 113.727a2.467 2.467 0 1 0 0-4.933 2.467 2.467 0 0 0 0 4.933zM80.095 18.497a1.812 1.812 0 1 0 0-3.624 1.812 1.812 0 0 0 0 3.624zM71.89 125.983a2.458 2.458 0 1 0 0-4.916 2.458 2.458 0 0 0 0 4.916zM94.1 20.708a1.386 1.386 0 1 0 0-2.771 1.386 1.386 0 0 0 0 2.771zM89.473 22.835a2.57 2.57 0 1 0 0-5.139 2.57 2.57 0 0 0 0 5.14zM99.67 20.342a1.776 1.776 0 1 0 0-3.551 1.776 1.776 0 0 0 0 3.55zM46.082 98.257a1.928 1.928 0 1 0 0-3.856 1.928 1.928 0 0 0 0 3.856zM116.936 117.207a2.046 2.046 0 1 0 0-4.092 2.046 2.046 0 0 0 0 4.092zM137.466 66.567a1.497 1.497 0 1 0 0-2.993 1.497 1.497 0 0 0 0 2.993zM19.995 63.655a2.23 2.23 0 1 0 0-4.461 2.23 2.23 0 0 0 0 4.46zM19.369 82.08a1.992 1.992 0 1 0 0-3.985 1.992 1.992 0 0 0 0 3.984zM70.602 20.189a1.2 1.2 0 1 0 0-2.402 1.2 1.2 0 0 0 0 2.402zM36.508 102.242a1.544 1.544 0 1 0 0-3.09 1.544 1.544 0 0 0 0 3.09zM66.955 97.537a1.812 1.812 0 1 0 0-3.624 1.812 1.812 0 0 0 0 3.624zM111.855 25.686a1.45 1.45 0 1 0 0-2.898 1.45 1.45 0 0 0 0 2.898zM84.77 18.437a2.096 2.096 0 1 0 0-4.192 2.096 2.096 0 0 0 0 4.192zM59.44 135.439a2.305 2.305 0 1 0 0-4.61 2.305 2.305 0 0 0 0 4.61zM40.741 108.647a2.222 2.222 0 1 0 0-4.443 2.222 2.222 0 0 0 0 4.443zM22.653 78.246a1.959 1.959 0 1 0 0-3.917 1.959 1.959 0 0 0 0 3.917zM22.062 86.513a2.386 2.386 0 1 0 0-4.772 2.386 2.386 0 0 0 0 4.772zM25.105 74.513a1.879 1.879 0 1 0 0-3.757 1.879 1.879 0 0 0 0 3.757zM55.003 131.888a1.84 1.84 0 1 0 0-3.68 1.84 1.84 0 0 0 0 3.68zM43.834 123.617a1.998 1.998 0 1 0 0-3.997 1.998 1.998 0 0 0 0 3.997zM107.882 116.237a1.341 1.341 0 1 0 0-2.682 1.341 1.341 0 0 0 0 2.682zM36.706 112.011a2.185 2.185 0 1 0 0-4.37 2.185 2.185 0 0 0 0 4.37z"
                    clip-path="url(#p0d18b7291c)" style="fill:#afdad2;stroke:#fff;stroke-width:.25" />
                <path
                    d="M48.232 126.105a2.379 2.379 0 1 0 0-4.758 2.379 2.379 0 0 0 0 4.758zM123.783 56.342a1.336 1.336 0 1 0 0-2.671 1.336 1.336 0 0 0 0 2.67zM19.147 74.744a1.472 1.472 0 1 0 0-2.944 1.472 1.472 0 0 0 0 2.944zM29.531 110.381a1.631 1.631 0 1 0 0-3.262 1.631 1.631 0 0 0 0 3.262zM29.792 103.278a2.512 2.512 0 1 0 0-5.023 2.512 2.512 0 0 0 0 5.023zM24.128 97.203a1.862 1.862 0 1 0 0-3.724 1.862 1.862 0 0 0 0 3.724zM68.614 134.412a1.415 1.415 0 1 0 0-2.83 1.415 1.415 0 0 0 0 2.83zM42.184 114.915a1.24 1.24 0 1 0 0-2.48 1.24 1.24 0 0 0 0 2.48zM72.952 136.677a1.89 1.89 0 1 0 0-3.78 1.89 1.89 0 0 0 0 3.78zM23.609 101.975a2.12 2.12 0 1 0 0-4.24 2.12 2.12 0 0 0 0 4.24zM34.983 116.975a2.358 2.358 0 1 0 0-4.716 2.358 2.358 0 0 0 0 4.716zM39.64 119.76a1.44 1.44 0 1 0 0-2.881 1.44 1.44 0 0 0 0 2.88zM20.4 91.449a2.548 2.548 0 1 0-.001-5.095 2.548 2.548 0 0 0 0 5.095zM36.913 50.26a2.415 2.415 0 1 0 0-4.829 2.415 2.415 0 0 0 0 4.83zM120.147 123.127a2.53 2.53 0 1 0 0-5.06 2.53 2.53 0 0 0 0 5.06z"
                    clip-path="url(#p0d18b7291c)" style="fill:#afdad2;stroke:#fff;stroke-width:.25" />
                <path
                    d="M25.601 106.782a2.478 2.478 0 1 0 0-4.957 2.478 2.478 0 0 0 0 4.957zM45.007 119.01a1.78 1.78 0 1 0 0-3.56 1.78 1.78 0 0 0 0 3.56zM123.473 113.647a2.215 2.215 0 1 0 0-4.429 2.215 2.215 0 0 0 0 4.43zM28.751 89.208a1.632 1.632 0 1 0 0-3.264 1.632 1.632 0 0 0 0 3.264z"
                    clip-path="url(#p0d18b7291c)" style="fill:#afdad2;stroke:#fff;stroke-width:.25" />
            </g>
        </g>
    </g>
    <defs>
        <clipPath id="p05aec58a04">
            <path d="M7.2 7.2h144v136.678H7.2z" />
        </clipPath>
        <clipPath id="p31243c7135">
            <path
                d="M79.2 138.997a63.46 63.46 0 0 0 63.458-63.458A63.46 63.46 0 0 0 79.2 12.081 63.46 63.46 0 0 0 15.742 75.54 63.46 63.46 0 0 0 79.2 138.997" />
        </clipPath>
        <clipPath id="p0d18b7291c">
            <path
                d="M-6.224-14.766v82.071l2.44-.123 2.442-.143 2.44-.165 2.441-.188 2.44-.215 2.441-.243 2.441-.276 2.44-.31 2.441-.346 2.441-.386 2.44-.428 2.441-.473 2.441-.519 2.44-.567 2.441-.617 2.441-.667 2.44-.718 2.441-.77 2.441-.819 2.44-.868 2.442-.914 2.44-.957 2.44-.997 2.442-1.032 2.44-1.062 2.44-1.084 2.442-1.1 2.44-1.11 2.44-1.108 2.442-1.1 2.44-1.081 2.441-1.054 2.44-1.016 2.441-.968 2.441-.91 2.44-.845 2.441-.768 2.441-.685 2.44-.593 2.441-.494 2.441-.39 2.44-.283 2.441-.171 2.441-.057 2.44.057 2.441.17 2.441.283 2.44.39 2.441.495 2.441.593 2.44.685 2.442.768 2.44.844 2.44.911 2.442.968 2.44 1.016 2.44 1.054L135.337 48l2.44 1.1 2.44 1.109 2.442 1.109 2.44 1.1 2.441 1.084 2.44 1.062 2.441 1.032 2.441.997 2.44.957 2.441.914 2.441.868 2.44.82v-74.918H-6.222" />
        </clipPath>
    </defs>
</svg>