<svg version="1.1" id="Layer_1" xmlns="http://www.w3.org/2000/svg" xmlns:xlink="http://www.w3.org/1999/xlink" x="0px" y="0px"
	 width="70px" height="70px" viewBox="0 0 70 70" enable-background="new 0 0 70 70" xml:space="preserve">
<linearGradient id="SVGID_15_" gradientUnits="userSpaceOnUse" x1="-210" y1="0" x2="140" y2="0">
	<stop  offset="0.25" style="stop-color:#4069B2"/>
	<stop  offset="0.75" style="stop-color:#73A7F4"/>
</linearGradient>z
<path fill="url(#SVGID_15_)" d="M28.036,45.469V24.518c6.041,3.493,12.032,6.965,18.095,10.473
	C40.084,38.497,34.084,41.962,28.036,45.469 M69.588,26.274c-0.174-2.457-0.428-4.906-0.98-7.314
	c-0.91-4.025-3.484-6.496-7.518-7.21c-3.031-0.532-6.098-0.693-9.162-0.84c-5.859-0.287-11.719-0.399-18.508-0.371
	c-3.535-0.021-7.98,0.098-12.426,0.266c-3.801,0.154-7.595,0.351-11.375,0.854c-4.711,0.615-7.602,3.339-8.436,7.966
	c-0.727,4.046-0.938,8.141-1.07,12.235c-0.133,4.18,0,8.345,0.329,12.51c0.203,2.471,0.42,4.948,1.085,7.35
	c0.917,3.27,3.038,5.39,6.32,6.286c2.136,0.581,4.354,0.686,6.545,0.848c4.516,0.336,9.037,0.469,13.553,0.545
	c7.189,0.134,14.377,0.07,21.566-0.217c3.703-0.146,7.414-0.336,11.096-0.854c2.646-0.371,4.857-1.477,6.475-3.661
	c1.135-1.533,1.555-3.312,1.848-5.131c0.707-4.291,0.883-8.624,0.98-12.964C70.008,33.142,69.834,29.705,69.588,26.274"/>
</svg>
