<svg xmlns="http://www.w3.org/2000/svg" width="70" height="70" viewBox="0 0 1000 1000">
    <path d="M401.6 644.2V344.9c86.3 49.9 171.9 99.5 258.5 149.6C573.7 544.6 488 594.1 401.6 644.2M995.2 370c-2.5-35.1-6.1-70.1-14-104.5 -13-57.5-49.8-92.8-107.4-103 -43.3-7.6-87.1-9.9-130.9-12 -83.7-4.1-167.4-5.7-264.4-5.3 -50.5-0.3-114 1.4-177.5 3.8 -54.3 2.2-108.5 5-162.5 12.2C71.2 170 29.9 208.9 18 275 7.6 332.8 4.6 391.3 2.7 449.8c-1.9 59.7 0 119.2 4.7 178.7 2.9 35.3 6 70.7 15.5 105 13.1 46.7 43.4 77 90.3 89.8 30.5 8.3 62.2 9.8 93.5 12.1 64.5 4.8 129.1 6.7 193.6 7.8 102.7 1.9 205.4 1 308.1-3.1 52.9-2.1 105.9-4.8 158.5-12.2 37.8-5.3 69.4-21.1 92.5-52.3 16.2-21.9 22.2-47.3 26.4-73.3 10.1-61.3 12.6-123.2 14-185.2C1001.2 468.1 998.7 419 995.2 370"/>
</svg>